<svg width="1690" height="1237" viewBox="0 0 1440 1237" fill="none" xmlns="http://www.w3.org/2000/svg">
<path fill-rule="evenodd" clip-rule="evenodd" d="M5151.84 798.699L4925.58 658.73C4699.32 518.762 4246.8 238.825 3794.28 98.8569C3341.75 -41.1115 2889.23 -41.1115 2436.71 154.844C1984.18 350.8 1531.66 742.711 1079.14 826.692C626.615 910.673 174.092 686.724 -278.431 686.724C-730.954 686.724 -1183.48 910.673 -1409.74 1022.65L-1636 1134.62V1470.55H-1409.74C-1183.48 1470.55 -730.954 1470.55 -278.431 1470.55C174.092 1470.55 626.615 1470.55 1079.14 1470.55C1531.66 1470.55 1984.18 1470.55 2436.71 1470.55C2889.23 1470.55 3341.75 1470.55 3794.28 1470.55C4246.8 1470.55 4699.32 1470.55 4925.58 1470.55H5151.84V798.699Z" fill="url(#paint0_linear)"/>
<defs>
<linearGradient id="paint0_linear" x1="5151.84" y1="1470.55" x2="4543.24" y2="-1338.7" gradientUnits="userSpaceOnUse">
<stop stop-color="#FFD3A5"/>
<stop offset="1" stop-color="#FD6585"/>
</linearGradient>
</defs>
</svg>
