<svg width="361" height="63" viewBox="0 0 361 63" fill="none" xmlns="http://www.w3.org/2000/svg">
<path d="M58.104 26.872C54.432 15.424 43.488 7.648 31.464 7.648C15.192 7.648 3.96 19.312 3.96 35.152C3.96 51.064 15.192 62.728 31.464 62.728C43.488 62.728 54.432 55.024 58.104 43.432C58.248 43 57.96 42.496 57.528 42.352C57.024 42.208 56.592 42.424 56.448 42.928C52.992 53.8 42.84 61 31.464 61C16.2 61 5.616 50.128 5.616 35.152C5.616 20.176 16.2 9.376 31.464 9.376C42.84 9.376 52.992 16.576 56.448 27.376C56.592 27.88 57.024 28.096 57.528 27.952C57.96 27.88 58.248 27.304 58.104 26.872ZM17.064 43.576C20.016 48.76 25.488 52.072 31.464 52.072C40.752 52.072 48.096 44.368 48.096 35.152C48.096 26.008 40.752 18.304 31.464 18.304C25.488 18.304 20.016 21.544 17.064 26.728C16.848 27.16 16.992 27.664 17.352 27.952C17.784 28.168 18.36 28.024 18.576 27.592C21.168 22.912 26.064 19.96 31.464 19.96C39.816 19.96 46.368 26.872 46.368 35.152C46.368 43.432 39.816 50.344 31.464 50.344C26.064 50.344 21.168 47.392 18.576 42.712C18.36 42.352 17.784 42.208 17.352 42.424C16.992 42.64 16.848 43.216 17.064 43.576Z" fill="url(#paint0_linear)"/>
<path d="M89.9727 29.2461V36.5459C88.7194 35.016 87.5964 33.9661 86.6035 33.3965C85.627 32.8105 84.4795 32.5176 83.1611 32.5176C81.0941 32.5176 79.377 33.2419 78.0098 34.6904C76.6426 36.139 75.959 37.9538 75.959 40.1348C75.959 42.3646 76.6182 44.1956 77.9365 45.6279C79.2712 47.0602 80.972 47.7764 83.0391 47.7764C84.3574 47.7764 85.5212 47.4915 86.5303 46.9219C87.5068 46.3685 88.6543 45.2943 89.9727 43.6992V50.9502C87.7428 52.1058 85.513 52.6836 83.2832 52.6836C79.6048 52.6836 76.5286 51.4954 74.0547 49.1191C71.5807 46.7266 70.3438 43.7562 70.3438 40.208C70.3438 36.6598 71.597 33.665 74.1035 31.2236C76.61 28.7822 79.6862 27.5615 83.332 27.5615C85.6758 27.5615 87.8893 28.123 89.9727 29.2461ZM100.788 28.2207V52H95.2949V28.2207H100.788ZM94.4648 18.333C94.4648 17.3727 94.8148 16.5426 95.5146 15.8428C96.2145 15.1429 97.0527 14.793 98.0293 14.793C99.0221 14.793 99.8685 15.1429 100.568 15.8428C101.268 16.5264 101.618 17.3646 101.618 18.3574C101.618 19.3503 101.268 20.1966 100.568 20.8965C99.8848 21.5964 99.0465 21.9463 98.0537 21.9463C97.0609 21.9463 96.2145 21.5964 95.5146 20.8965C94.8148 20.1966 94.4648 19.3421 94.4648 18.333ZM107.746 28.2207H113.239V30.3447C114.248 29.2868 115.144 28.5625 115.925 28.1719C116.722 27.765 117.666 27.5615 118.757 27.5615C120.205 27.5615 121.719 28.0335 123.298 28.9775L120.783 34.0068C119.742 33.2581 118.724 32.8838 117.731 32.8838C114.737 32.8838 113.239 35.1462 113.239 39.6709V52H107.746V28.2207ZM144.514 29.2461V36.5459C143.26 35.016 142.137 33.9661 141.145 33.3965C140.168 32.8105 139.021 32.5176 137.702 32.5176C135.635 32.5176 133.918 33.2419 132.551 34.6904C131.184 36.139 130.5 37.9538 130.5 40.1348C130.5 42.3646 131.159 44.1956 132.478 45.6279C133.812 47.0602 135.513 47.7764 137.58 47.7764C138.898 47.7764 140.062 47.4915 141.071 46.9219C142.048 46.3685 143.195 45.2943 144.514 43.6992V50.9502C142.284 52.1058 140.054 52.6836 137.824 52.6836C134.146 52.6836 131.07 51.4954 128.596 49.1191C126.122 46.7266 124.885 43.7562 124.885 40.208C124.885 36.6598 126.138 33.665 128.645 31.2236C131.151 28.7822 134.227 27.5615 137.873 27.5615C140.217 27.5615 142.43 28.123 144.514 29.2461ZM167.365 28.2207H172.883V52H167.365V49.5098C165.103 51.6257 162.67 52.6836 160.065 52.6836C156.778 52.6836 154.06 51.4954 151.911 49.1191C149.779 46.694 148.713 43.6667 148.713 40.0371C148.713 36.4727 149.779 33.5023 151.911 31.126C154.043 28.7497 156.713 27.5615 159.919 27.5615C162.686 27.5615 165.168 28.7008 167.365 30.9795V28.2207ZM154.328 40.0371C154.328 42.3158 154.938 44.1712 156.159 45.6035C157.412 47.0521 158.991 47.7764 160.896 47.7764C162.93 47.7764 164.574 47.0765 165.827 45.6768C167.08 44.2282 167.707 42.389 167.707 40.1592C167.707 37.9294 167.08 36.0902 165.827 34.6416C164.574 33.2256 162.946 32.5176 160.944 32.5176C159.056 32.5176 157.478 33.2337 156.208 34.666C154.955 36.1146 154.328 37.9049 154.328 40.0371ZM185.31 10.7646V52H179.816V10.7646H185.31Z" fill="url(#paint1_linear)"/>
<defs>
<linearGradient id="paint0_linear" x1="-176.5" y1="-17.5" x2="-184.256" y2="69.6874" gradientUnits="userSpaceOnUse">
<stop stop-color="#FFD3A5"/>
<stop offset="1" stop-color="#FD6585"/>
</linearGradient>
<linearGradient id="paint1_linear" x1="68" y1="0" x2="83.8977" y2="89.1655" gradientUnits="userSpaceOnUse">
<stop stop-color="#FFD3A5"/>
<stop offset="1" stop-color="#FD6585"/>
</linearGradient>
</defs>
</svg>
