<svg width="46" height="47" viewBox="0 0 46 47" fill="none" xmlns="http://www.w3.org/2000/svg">
<path d="M45.42 16.56C42.36 7.02 33.24 0.539997 23.22 0.539997C9.66 0.539997 0.3 10.26 0.3 23.46C0.3 36.72 9.66 46.44 23.22 46.44C33.24 46.44 42.36 40.02 45.42 30.36C45.54 30 45.3 29.58 44.94 29.46C44.52 29.34 44.16 29.52 44.04 29.94C41.16 39 32.7 45 23.22 45C10.5 45 1.68 35.94 1.68 23.46C1.68 10.98 10.5 1.98 23.22 1.98C32.7 1.98 41.16 7.98 44.04 16.98C44.16 17.4 44.52 17.58 44.94 17.46C45.3 17.4 45.54 16.92 45.42 16.56ZM11.22 30.48C13.68 34.8 18.24 37.56 23.22 37.56C30.96 37.56 37.08 31.14 37.08 23.46C37.08 15.84 30.96 9.42 23.22 9.42C18.24 9.42 13.68 12.12 11.22 16.44C11.04 16.8 11.16 17.22 11.46 17.46C11.82 17.64 12.3 17.52 12.48 17.16C14.64 13.26 18.72 10.8 23.22 10.8C30.18 10.8 35.64 16.56 35.64 23.46C35.64 30.36 30.18 36.12 23.22 36.12C18.72 36.12 14.64 33.66 12.48 29.76C12.3 29.46 11.82 29.34 11.46 29.52C11.16 29.7 11.04 30.18 11.22 30.48Z" fill="#C6C8CF"/>
</svg>
