<svg width="362" height="47" viewBox="0 0 362 47" fill="none" xmlns="http://www.w3.org/2000/svg">
<path d="M48.42 16.56C45.36 7.02 36.24 0.539997 26.22 0.539997C12.66 0.539997 3.3 10.26 3.3 23.46C3.3 36.72 12.66 46.44 26.22 46.44C36.24 46.44 45.36 40.02 48.42 30.36C48.54 30 48.3 29.58 47.94 29.46C47.52 29.34 47.16 29.52 47.04 29.94C44.16 39 35.7 45 26.22 45C13.5 45 4.68 35.94 4.68 23.46C4.68 10.98 13.5 1.98 26.22 1.98C35.7 1.98 44.16 7.98 47.04 16.98C47.16 17.4 47.52 17.58 47.94 17.46C48.3 17.4 48.54 16.92 48.42 16.56ZM14.22 30.48C16.68 34.8 21.24 37.56 26.22 37.56C33.96 37.56 40.08 31.14 40.08 23.46C40.08 15.84 33.96 9.42 26.22 9.42C21.24 9.42 16.68 12.12 14.22 16.44C14.04 16.8 14.16 17.22 14.46 17.46C14.82 17.64 15.3 17.52 15.48 17.16C17.64 13.26 21.72 10.8 26.22 10.8C33.18 10.8 38.64 16.56 38.64 23.46C38.64 30.36 33.18 36.12 26.22 36.12C21.72 36.12 17.64 33.66 15.48 29.76C15.3 29.46 14.82 29.34 14.46 29.52C14.16 29.7 14.04 30.18 14.22 30.48Z" fill="#C6C8CF"/>
<path d="M49.42 16.56C46.36 7.02 37.24 0.539997 27.22 0.539997C13.66 0.539997 4.3 10.26 4.3 23.46C4.3 36.72 13.66 46.44 27.22 46.44C37.24 46.44 46.36 40.02 49.42 30.36C49.54 30 49.3 29.58 48.94 29.46C48.52 29.34 48.16 29.52 48.04 29.94C45.16 39 36.7 45 27.22 45C14.5 45 5.68 35.94 5.68 23.46C5.68 10.98 14.5 1.98 27.22 1.98C36.7 1.98 45.16 7.98 48.04 16.98C48.16 17.4 48.52 17.58 48.94 17.46C49.3 17.4 49.54 16.92 49.42 16.56ZM15.22 30.48C17.68 34.8 22.24 37.56 27.22 37.56C34.96 37.56 41.08 31.14 41.08 23.46C41.08 15.84 34.96 9.42 27.22 9.42C22.24 9.42 17.68 12.12 15.22 16.44C15.04 16.8 15.16 17.22 15.46 17.46C15.82 17.64 16.3 17.52 16.48 17.16C18.64 13.26 22.72 10.8 27.22 10.8C34.18 10.8 39.64 16.56 39.64 23.46C39.64 30.36 34.18 36.12 27.22 36.12C22.72 36.12 18.64 33.66 16.48 29.76C16.3 29.46 15.82 29.34 15.46 29.52C15.16 29.7 15.04 30.18 15.22 30.48Z" fill="#C6C8CF"/>
</svg>
