<svg width="350" height="354" viewBox="0 0 350 354" fill="none" xmlns="http://www.w3.org/2000/svg">
<path d="M350 344.231C347.819 357.821 233.331 356.68 233.504 344.23C235.685 330.641 350.173 331.782 350 344.231Z" fill="#C6C8CF"/>
<path d="M286.485 111.572C290.901 111.572 294.481 107.048 294.481 101.467C294.481 95.8868 290.901 91.3628 286.485 91.3628C282.07 91.3628 278.49 95.8868 278.49 101.467C278.49 107.048 282.07 111.572 286.485 111.572Z" fill="#2F2E41"/>
<path d="M278.501 97.3589L283.506 95.8087C285.416 95.8087 287.302 95.2721 289.028 94.2375C290.754 93.203 292.277 91.6965 293.485 89.827C294.694 87.9575 295.559 85.7718 296.017 83.4281C296.475 81.0844 296.516 78.6412 296.135 76.2754C296.135 70.6292 294.36 65.2142 291.201 61.2218C288.042 57.2293 283.757 54.9863 279.29 54.9863H279.29C277.078 54.9863 274.887 55.537 272.843 56.6069C270.8 57.6767 268.943 59.2449 267.378 61.2217C265.814 63.1986 264.573 65.5455 263.727 68.1284C262.88 70.7113 262.445 73.4797 262.445 76.2754V76.2754C261.8 79.1242 261.759 82.137 262.325 85.0123C262.891 87.8876 264.044 90.5245 265.67 92.6593C267.296 94.7941 269.337 96.3518 271.589 97.1766C273.841 98.0013 276.224 98.0642 278.501 97.3589Z" fill="#2F2E41"/>
<path d="M310.69 162.117L298.319 139.864L291.602 155.628L299.278 166.945L310.69 162.117Z" fill="#575A89"/>
<path d="M304.235 159.872C304.235 159.872 308.073 157.851 310.312 161.488C312.55 165.126 316.388 172.806 315.109 174.018C313.829 175.231 309.672 170.38 309.672 170.38L304.235 159.872Z" fill="#575A89"/>
<path d="M314.82 179.593C316.063 178.341 315.553 174.92 313.682 171.953C311.81 168.985 309.285 167.595 308.042 168.847C306.799 170.1 307.308 173.52 309.18 176.488C311.052 179.455 313.577 180.845 314.82 179.593Z" fill="#FFB8B8"/>
<path d="M316.708 216.053C316.708 216.053 316.068 241.921 313.829 256.876C311.591 271.83 315.109 325.587 315.109 325.587L308.073 329.628L303.595 323.566C303.595 323.566 305.194 312.653 302.956 304.973C300.717 297.294 299.758 264.151 299.758 264.151L295.92 219.691L316.708 216.053Z" fill="#FFB8B8"/>
<path d="M290.483 223.733L270.335 270.214L252.106 312.653V321.545L242.831 317.907L246.029 308.611C246.029 308.611 247.628 272.235 259.142 258.088L269.056 222.116L290.483 223.733Z" fill="#FFB8B8"/>
<path d="M302.476 161.286H305.994C305.994 161.286 325.183 194.429 324.223 214.639L296.719 228.785L295.76 225.956C295.76 225.956 273.053 231.21 267.297 225.147L275.292 173.412L275.932 166.137L302.476 161.286Z" fill="#2F2E41"/>
<path d="M311.271 325.182C311.271 325.182 306.794 317.907 312.23 317.503C317.667 317.099 317.667 321.545 317.667 321.545L329.82 332.054C329.82 332.054 349.968 341.35 335.577 344.179C335.577 344.179 329.5 345.796 321.825 342.158C317.215 339.97 312.354 338.742 307.433 338.521C307.433 338.521 300.397 338.116 300.397 333.67C300.397 329.224 303.83 321.545 303.83 321.545C303.83 321.545 309.352 326.395 311.271 325.182Z" fill="#2F2E41"/>
<path d="M242.192 315.078C242.192 315.078 253.065 312.249 253.385 317.503C253.705 322.757 253.385 331.649 253.385 331.649C253.385 331.649 250.827 335.691 251.466 338.521C252.106 341.35 249.867 350.242 242.192 349.029C234.516 347.817 237.075 334.075 237.075 334.075L242.192 318.311V315.078Z" fill="#2F2E41"/>
<path d="M277.051 91.7669C282.968 91.7669 287.765 85.7048 287.765 78.2268C287.765 70.7488 282.968 64.6866 277.051 64.6866C271.134 64.6866 266.337 70.7488 266.337 78.2268C266.337 85.7048 271.134 91.7669 277.051 91.7669Z" fill="#FFB8B8"/>
<path d="M284.247 85.7041L284.407 108.945L271.294 103.286C271.294 103.286 272.893 89.948 272.574 88.7355L284.247 85.7041Z" fill="#FFB8B8"/>
<path d="M286.645 102.074C286.645 102.074 272.894 96.0108 271.294 96.8192C269.695 97.6276 269.056 102.074 269.056 102.074C269.056 102.074 261.38 100.053 260.421 106.52C259.461 112.987 266.497 141.279 266.497 141.279L273.533 157.851C273.533 157.851 270.015 164.722 276.092 167.147C282.168 169.572 304.235 161.893 304.235 161.893C304.235 161.893 308.073 156.234 304.235 156.234C304.235 156.234 302.956 150.98 301.677 149.767C300.397 148.555 302.636 146.534 301.357 146.13C300.077 145.725 300.077 144.917 300.077 144.917C300.077 144.917 306.474 134.004 300.717 125.112C294.96 116.22 294.161 107.934 291.283 106.722C288.404 105.509 286.645 102.074 286.645 102.074Z" fill="#575A89"/>
<path d="M284.807 197.418C285.405 195.556 283.634 192.89 280.852 191.463C278.07 190.036 275.33 190.388 274.732 192.249C274.134 194.111 275.905 196.777 278.687 198.204C281.469 199.631 284.209 199.279 284.807 197.418Z" fill="#FFB8B8"/>
<path d="M265.218 105.307H260.709C260.709 105.307 247.628 145.321 251.466 157.851C255.304 170.38 269.376 192.206 269.376 192.206C269.376 192.206 273.853 202.311 277.051 202.311C280.249 202.311 283.767 187.76 283.767 187.76L273.533 182.102L261.38 153.809L267.137 131.983L265.218 105.307Z" fill="#575A89"/>
<path opacity="0.2" d="M300.237 144.715L307.273 160.478L305.994 161.287L300.237 144.715Z" fill="black"/>
<path opacity="0.2" d="M286.788 180.185L286.169 180.386L295.457 226.054L296.077 225.853L286.788 180.185Z" fill="black"/>
<path d="M264.099 72.7703L266.018 68.3242L268.896 70.7633C269.192 71.2794 269.583 71.6974 270.034 71.9813C270.486 72.2653 270.985 72.4069 271.49 72.3941L281.539 72.1377C281.99 72.1262 282.435 71.9984 282.845 71.762C283.256 71.5257 283.624 71.1858 283.927 70.7633C284.717 71.1334 285.425 71.7389 285.99 72.5285C286.555 73.3181 286.962 74.2683 287.174 75.2987L288.404 81.2581V61.049H269.216L264.099 72.7703Z" fill="#2F2E41"/>
<path d="M180.495 0H0V293.89H180.495V0Z" fill="#E6E6E6"/>
<path d="M175.481 37.7169H5.01379V111.34H175.481V37.7169Z" fill="white"/>
<path d="M175.481 124.013H5.01379V197.637H175.481V124.013Z" fill="white"/>
<path d="M175.481 210.309H5.01379V283.933H175.481V210.309Z" fill="white"/>
<path d="M170.945 17.5007C173.582 17.5007 175.72 14.7989 175.72 11.466C175.72 8.1331 173.582 5.43127 170.945 5.43127C168.307 5.43127 166.17 8.1331 166.17 11.466C166.17 14.7989 168.307 17.5007 170.945 17.5007Z" fill="white"/>
<path d="M20.6518 166.86C23.289 166.86 25.4268 164.158 25.4268 160.825C25.4268 157.492 23.289 154.79 20.6518 154.79C18.0147 154.79 15.8768 157.492 15.8768 160.825C15.8768 164.158 18.0147 166.86 20.6518 166.86Z" fill="#E6E6E6"/>
<path d="M79.3842 155.997H34.4993V165.653H79.3842V155.997Z" fill="#E6E6E6"/>
<path d="M105.527 167.161C108.164 167.161 110.302 164.46 110.302 161.127C110.302 157.794 108.164 155.092 105.527 155.092C102.89 155.092 100.752 157.794 100.752 161.127C100.752 164.46 102.89 167.161 105.527 167.161Z" fill="#E6E6E6"/>
<path d="M164.26 156.299H119.375V165.954H164.26V156.299Z" fill="#E6E6E6"/>
<path d="M173.431 9.17689L172.756 8.32349L170.945 10.6128L169.133 8.32349L168.458 9.17689L170.269 11.4662L168.458 13.7549L169.133 14.6083L170.945 12.319L172.756 14.6083L173.431 13.7549L171.62 11.4662L173.431 9.17689Z" fill="#E6E6E6"/>
<path d="M20.6518 80.5633C23.289 80.5633 25.4268 77.8615 25.4268 74.5286C25.4268 71.1957 23.289 68.4939 20.6518 68.4939C18.0147 68.4939 15.8768 71.1957 15.8768 74.5286C15.8768 77.8615 18.0147 80.5633 20.6518 80.5633Z" fill="#E6E6E6"/>
<path d="M164.618 69.0974H43.333V78.7529H164.618V69.0974Z" fill="#E6E6E6"/>
<path d="M144.801 69.0974H35.9318V78.7529H144.801V69.0974Z" fill="#CBCBCB"/>
<path d="M20.6518 253.156C23.289 253.156 25.4268 250.454 25.4268 247.121C25.4268 243.788 23.289 241.087 20.6518 241.087C18.0147 241.087 15.8768 243.788 15.8768 247.121C15.8768 250.454 18.0147 253.156 20.6518 253.156Z" fill="#E6E6E6"/>
<path d="M164.618 241.69H43.333V251.345H164.618V241.69Z" fill="#E6E6E6"/>
<path d="M104.095 241.69H35.9318V251.345H104.095V241.69Z" fill="#CBCBCB"/>
<path d="M48.7049 155.997H34.4993V165.653H48.7049V155.997Z" fill="#BFBFBF"/>
<path d="M147.547 156.299H119.375V165.954H147.547V156.299Z" fill="#BFBFBF"/>
</svg>
