<svg width="1463" height="1065" viewBox="0 0 1463 1065" fill="none" xmlns="http://www.w3.org/2000/svg">
<path fill-rule="evenodd" clip-rule="evenodd" d="M-1959.54 -883.015L-1790.47 -677.583C-1621.41 -472.15 -1283.28 -61.2851 -900.031 217.083C-516.783 495.451 -88.4157 641.323 403.118 601.698C894.652 562.074 1449.35 336.954 1904.79 403.327C2360.23 469.701 2716.41 827.567 3144.77 973.438C3573.14 1119.31 4073.7 1053.19 4323.98 1020.12L4574.26 987.062L4682.54 669.07L4468.36 596.134C4254.18 523.198 3825.81 377.327 3397.44 231.456C2969.07 85.5844 2540.71 -60.2868 2112.34 -206.158C1683.97 -352.029 1255.6 -497.901 827.236 -643.772C398.869 -789.643 -29.4982 -935.515 -457.866 -1081.39C-886.233 -1227.26 -1314.6 -1373.13 -1528.78 -1446.06L-1742.97 -1519L-1959.54 -883.015Z" fill="url(#paint0_linear)"/>
<defs>
<linearGradient id="paint0_linear" x1="-1742.97" y1="-1519" x2="-2072.41" y2="1336.47" gradientUnits="userSpaceOnUse">
<stop stop-color="#CE9FFC"/>
<stop offset="1" stop-color="#7367F0"/>
</linearGradient>
</defs>
</svg>
