<svg width="142" height="142" viewBox="0 0 142 142" fill="none" xmlns="http://www.w3.org/2000/svg">
<g filter="url(#filter0_d)">
<circle cx="71" cy="66" r="56" fill="url(#paint0_linear)"/>
</g>
<path d="M87.2143 41.5V42.5H88.2143H94.1071C96.8526 42.5 99 44.6151 99 47.125V51.75H46V47.125C46 44.6151 48.1474 42.5 50.8929 42.5H56.7857H57.7857V41.5V35.875C57.7857 35.4394 58.1776 35 58.75 35H62.6786C63.251 35 63.6429 35.4394 63.6429 35.875V41.5V42.5H64.6429H80.3571H81.3571V41.5V35.875C81.3571 35.4394 81.749 35 82.3214 35H86.25C86.8224 35 87.2143 35.4394 87.2143 35.875V41.5ZM50.8929 93C48.1474 93 46 90.8849 46 88.375V57.5H99V88.375C99 90.8849 96.8526 93 94.1071 93H50.8929ZM85.7589 63C84.4407 63 83.2857 64.0372 83.2857 65.4062V70.0938C83.2857 71.4628 84.4407 72.5 85.7589 72.5H90.6696C91.9879 72.5 93.1429 71.4628 93.1429 70.0938V65.4062C93.1429 64.0372 91.9879 63 90.6696 63H85.7589ZM85.7589 78C84.4407 78 83.2857 79.0372 83.2857 80.4062V85.0938C83.2857 86.4628 84.4407 87.5 85.7589 87.5H90.6696C91.9879 87.5 93.1429 86.4628 93.1429 85.0938V80.4062C93.1429 79.0372 91.9879 78 90.6696 78H85.7589ZM70.0446 63C68.7264 63 67.5714 64.0372 67.5714 65.4062V70.0938C67.5714 71.4628 68.7264 72.5 70.0446 72.5H74.9554C76.2736 72.5 77.4286 71.4628 77.4286 70.0938V65.4062C77.4286 64.0372 76.2736 63 74.9554 63H70.0446ZM70.0446 78C68.7264 78 67.5714 79.0372 67.5714 80.4062V85.0938C67.5714 86.4628 68.7264 87.5 70.0446 87.5H74.9554C76.2736 87.5 77.4286 86.4628 77.4286 85.0938V80.4062C77.4286 79.0372 76.2736 78 74.9554 78H70.0446ZM54.3304 63C53.0122 63 51.8571 64.0372 51.8571 65.4062V70.0938C51.8571 71.4628 53.0122 72.5 54.3304 72.5H59.2411C60.5593 72.5 61.7143 71.4628 61.7143 70.0938V65.4062C61.7143 64.0372 60.5593 63 59.2411 63H54.3304ZM54.3304 78C53.0122 78 51.8571 79.0372 51.8571 80.4062V85.0938C51.8571 86.4628 53.0122 87.5 54.3304 87.5H59.2411C60.5593 87.5 61.7143 86.4628 61.7143 85.0938V80.4062C61.7143 79.0372 60.5593 78 59.2411 78H54.3304Z" stroke="white" stroke-width="2"/>
<defs>
<filter id="filter0_d" x="0" y="0" width="142" height="142" filterUnits="userSpaceOnUse" color-interpolation-filters="sRGB">
<feFlood flood-opacity="0" result="BackgroundImageFix"/>
<feColorMatrix in="SourceAlpha" type="matrix" values="0 0 0 0 0 0 0 0 0 0 0 0 0 0 0 0 0 0 127 0"/>
<feOffset dy="5"/>
<feGaussianBlur stdDeviation="7.5"/>
<feColorMatrix type="matrix" values="0 0 0 0 0.69 0 0 0 0 0.706867 0 0 0 0 0.766667 0 0 0 1 0"/>
<feBlend mode="normal" in2="BackgroundImageFix" result="effect1_dropShadow"/>
<feBlend mode="normal" in="SourceGraphic" in2="effect1_dropShadow" result="shape"/>
</filter>
<linearGradient id="paint0_linear" x1="15" y1="10" x2="127" y2="122" gradientUnits="userSpaceOnUse">
<stop stop-color="#90F7EC"/>
<stop offset="1" stop-color="#32CCBC"/>
</linearGradient>
</defs>
</svg>
