<svg width="142" height="142" viewBox="0 0 142 142" fill="none" xmlns="http://www.w3.org/2000/svg">
<g filter="url(#filter0_d)">
<circle cx="71" cy="66" r="56" fill="url(#paint0_linear)"/>
</g>
<path d="M85.32 50.6376L84.6944 51.3303L79.9807 56.5489C79.9807 56.5489 79.9807 56.5489 79.9806 56.5489C79.4112 57.1795 79.3095 58.0538 79.5878 58.7976C79.8654 59.5398 80.4521 60 81.1546 60H96.2903C97.1412 60 98 59.2028 98 58V41.2426C98 40.2915 97.493 39.6471 96.9104 39.3799C96.3437 39.12 95.6622 39.1873 95.1165 39.7915L91.0841 44.2559L90.3587 45.0591L89.6153 44.2725C84.7582 39.1336 78.2006 36 71 36C57.8845 36 46.8461 46.4312 44.4709 60.3956L85.32 50.6376ZM85.32 50.6376L84.672 49.9657M85.32 50.6376L84.672 49.9657M84.672 49.9657C80.9645 46.1223 76.1282 43.995 70.9819 44M84.672 49.9657L70.9819 44M70.9819 44C61.7032 44.009 53.8 51.0394 51.6279 60.6355M70.9819 44L51.6279 60.6355M51.6279 60.6355C51.5627 60.9235 51.3735 61 51.2878 61M51.6279 60.6355L51.2878 61M51.2878 61H44.8181M51.2878 61H44.8181M44.8181 61C44.7474 61 44.6566 60.9673 44.5741 60.8577M44.8181 61L44.5741 60.8577M44.5741 60.8577C44.4904 60.7466 44.4394 60.5812 44.4709 60.3957L44.5741 60.8577ZM57.3056 80.6698L56.68 81.3625L57.328 82.0344C61.0355 85.8779 65.8722 88.0053 71.0186 88.0001C80.2925 87.9908 88.1989 80.9653 90.3721 71.3648L89.3968 71.144L90.3721 71.3648C90.4373 71.0767 90.6265 71.0003 90.7122 71.0003H97.182C97.2527 71.0003 97.3435 71.033 97.426 71.1426C97.5098 71.2537 97.5608 71.4191 97.5292 71.6046C95.1539 85.5688 84.1155 96 71 96C63.7994 96 57.2418 92.8664 52.3847 87.7275L51.6413 86.9409L50.9159 87.7441L46.8835 92.2085C46.3378 92.8127 45.6563 92.88 45.0896 92.6201C44.507 92.3529 44 91.7085 44 90.7574V74C44 72.7972 44.8588 72 45.7097 72H60.8454C61.5479 72 62.1346 72.4602 62.4122 73.2024C62.6905 73.9462 62.5888 74.8205 62.0194 75.4511C62.0193 75.4511 62.0193 75.4511 62.0193 75.4511L57.3056 80.6698Z" stroke="white" stroke-width="2"/>
<defs>
<filter id="filter0_d" x="0" y="0" width="142" height="142" filterUnits="userSpaceOnUse" color-interpolation-filters="sRGB">
<feFlood flood-opacity="0" result="BackgroundImageFix"/>
<feColorMatrix in="SourceAlpha" type="matrix" values="0 0 0 0 0 0 0 0 0 0 0 0 0 0 0 0 0 0 127 0"/>
<feOffset dy="5"/>
<feGaussianBlur stdDeviation="7.5"/>
<feColorMatrix type="matrix" values="0 0 0 0 0.69 0 0 0 0 0.706867 0 0 0 0 0.766667 0 0 0 1 0"/>
<feBlend mode="normal" in2="BackgroundImageFix" result="effect1_dropShadow"/>
<feBlend mode="normal" in="SourceGraphic" in2="effect1_dropShadow" result="shape"/>
</filter>
<linearGradient id="paint0_linear" x1="15" y1="10" x2="127" y2="122" gradientUnits="userSpaceOnUse">
<stop stop-color="#CE9FFC"/>
<stop offset="1" stop-color="#7367F0"/>
</linearGradient>
</defs>
</svg>
