<svg width="1440" height="900" viewBox="0 0 1440 900" fill="none" xmlns="http://www.w3.org/2000/svg">
<g clip-path="url(#clip0)">
<rect width="1440" height="900" fill="#F3F6F9"/>
<g filter="url(#filter0_d)">
<rect x="350" y="38" width="774" height="823" rx="35" fill="white"/>
</g>
<path d="M638.766 94.3184V99.1699C636.398 97.1895 633.949 96.1992 631.418 96.1992C628.629 96.1992 626.279 97.2012 624.369 99.2051C622.447 101.197 621.486 103.635 621.486 106.518C621.486 109.365 622.447 111.768 624.369 113.725C626.291 115.682 628.646 116.66 631.436 116.66C632.877 116.66 634.102 116.426 635.109 115.957C635.672 115.723 636.252 115.406 636.85 115.008C637.459 114.609 638.098 114.129 638.766 113.566V118.506C636.422 119.83 633.961 120.492 631.383 120.492C627.504 120.492 624.193 119.139 621.451 116.432C618.721 113.701 617.355 110.408 617.355 106.553C617.355 103.096 618.498 100.014 620.783 97.3066C623.596 93.9902 627.234 92.332 631.699 92.332C634.137 92.332 636.492 92.9941 638.766 94.3184ZM643.195 90.3105H647.15V104.303C648.557 103.037 650.109 102.404 651.809 102.404C653.742 102.404 655.289 103.031 656.449 104.285C657.434 105.375 657.926 107.115 657.926 109.506V120H653.971V109.875C653.971 108.504 653.725 107.514 653.232 106.904C652.752 106.283 651.973 105.973 650.895 105.973C649.512 105.973 648.539 106.4 647.977 107.256C647.426 108.123 647.15 109.611 647.15 111.721V120H643.195V90.3105ZM662.145 111.316C662.145 108.844 663.029 106.74 664.799 105.006C666.568 103.271 668.725 102.404 671.268 102.404C673.822 102.404 675.99 103.277 677.771 105.023C679.529 106.77 680.408 108.914 680.408 111.457C680.408 114.023 679.523 116.174 677.754 117.908C675.973 119.631 673.787 120.492 671.197 120.492C668.631 120.492 666.48 119.613 664.746 117.855C663.012 116.121 662.145 113.941 662.145 111.316ZM666.188 111.387C666.188 113.098 666.645 114.451 667.559 115.447C668.496 116.455 669.732 116.959 671.268 116.959C672.814 116.959 674.051 116.461 674.977 115.465C675.902 114.469 676.365 113.139 676.365 111.475C676.365 109.811 675.902 108.48 674.977 107.484C674.039 106.477 672.803 105.973 671.268 105.973C669.756 105.973 668.531 106.477 667.594 107.484C666.656 108.492 666.188 109.793 666.188 111.387ZM683.801 111.316C683.801 108.844 684.686 106.74 686.455 105.006C688.225 103.271 690.381 102.404 692.924 102.404C695.479 102.404 697.646 103.277 699.428 105.023C701.186 106.77 702.064 108.914 702.064 111.457C702.064 114.023 701.18 116.174 699.41 117.908C697.629 119.631 695.443 120.492 692.854 120.492C690.287 120.492 688.137 119.613 686.402 117.855C684.668 116.121 683.801 113.941 683.801 111.316ZM687.844 111.387C687.844 113.098 688.301 114.451 689.215 115.447C690.152 116.455 691.389 116.959 692.924 116.959C694.471 116.959 695.707 116.461 696.633 115.465C697.559 114.469 698.021 113.139 698.021 111.475C698.021 109.811 697.559 108.48 696.633 107.484C695.695 106.477 694.459 105.973 692.924 105.973C691.412 105.973 690.188 106.477 689.25 107.484C688.312 108.492 687.844 109.793 687.844 111.387ZM716.215 105.797L712.945 107.537C712.43 106.482 711.791 105.955 711.029 105.955C710.666 105.955 710.355 106.078 710.098 106.324C709.84 106.559 709.711 106.863 709.711 107.238C709.711 107.895 710.473 108.545 711.996 109.189C714.094 110.092 715.506 110.924 716.232 111.686C716.959 112.447 717.322 113.473 717.322 114.762C717.322 116.414 716.713 117.797 715.494 118.91C714.311 119.965 712.881 120.492 711.205 120.492C708.334 120.492 706.301 119.092 705.105 116.291L708.48 114.727C708.949 115.547 709.307 116.068 709.553 116.291C710.033 116.736 710.607 116.959 711.275 116.959C712.611 116.959 713.279 116.35 713.279 115.131C713.279 114.428 712.764 113.771 711.732 113.162C711.334 112.963 710.936 112.77 710.537 112.582C710.139 112.395 709.734 112.201 709.324 112.002C708.176 111.439 707.367 110.877 706.898 110.314C706.301 109.6 706.002 108.68 706.002 107.555C706.002 106.066 706.512 104.836 707.531 103.863C708.574 102.891 709.84 102.404 711.328 102.404C713.52 102.404 715.148 103.535 716.215 105.797ZM736.482 112.371H724.213C724.318 113.777 724.775 114.896 725.584 115.729C726.393 116.549 727.43 116.959 728.695 116.959C729.68 116.959 730.494 116.725 731.139 116.256C731.771 115.787 732.492 114.92 733.301 113.654L736.641 115.518C736.125 116.396 735.58 117.152 735.006 117.785C734.432 118.406 733.816 118.922 733.16 119.332C732.504 119.73 731.795 120.023 731.033 120.211C730.271 120.398 729.445 120.492 728.555 120.492C726 120.492 723.949 119.672 722.402 118.031C720.855 116.379 720.082 114.188 720.082 111.457C720.082 108.75 720.832 106.559 722.332 104.883C723.844 103.23 725.848 102.404 728.344 102.404C730.863 102.404 732.855 103.207 734.32 104.812C735.773 106.406 736.5 108.615 736.5 111.439L736.482 112.371ZM732.422 109.137C731.871 107.027 730.541 105.973 728.432 105.973C727.951 105.973 727.5 106.049 727.078 106.201C726.656 106.342 726.27 106.553 725.918 106.834C725.578 107.104 725.285 107.432 725.039 107.818C724.793 108.205 724.605 108.645 724.477 109.137H732.422ZM764.555 102.879H768.527V120H764.555V118.207C762.926 119.73 761.174 120.492 759.299 120.492C756.932 120.492 754.975 119.637 753.428 117.926C751.893 116.18 751.125 114 751.125 111.387C751.125 108.82 751.893 106.682 753.428 104.971C754.963 103.26 756.885 102.404 759.193 102.404C761.186 102.404 762.973 103.225 764.555 104.865V102.879ZM755.168 111.387C755.168 113.027 755.607 114.363 756.486 115.395C757.389 116.438 758.525 116.959 759.896 116.959C761.361 116.959 762.545 116.455 763.447 115.447C764.35 114.404 764.801 113.08 764.801 111.475C764.801 109.869 764.35 108.545 763.447 107.502C762.545 106.482 761.373 105.973 759.932 105.973C758.572 105.973 757.436 106.488 756.521 107.52C755.619 108.562 755.168 109.852 755.168 111.387ZM792.873 96.709V120H788.777V96.709H782.537V92.8594H799.096V96.709H792.873ZM806.619 102.879V120H802.664V102.879H806.619ZM802.066 95.7598C802.066 95.0684 802.318 94.4707 802.822 93.9668C803.326 93.4629 803.93 93.2109 804.633 93.2109C805.348 93.2109 805.957 93.4629 806.461 93.9668C806.965 94.459 807.217 95.0625 807.217 95.7773C807.217 96.4922 806.965 97.1016 806.461 97.6055C805.969 98.1094 805.365 98.3613 804.65 98.3613C803.936 98.3613 803.326 98.1094 802.822 97.6055C802.318 97.1016 802.066 96.4863 802.066 95.7598ZM811.629 102.879H815.584V104.461C816.346 103.664 816.996 103.125 817.535 102.844C818.109 102.551 818.83 102.404 819.697 102.404C821.631 102.404 823.16 103.248 824.285 104.936C825.527 103.248 827.209 102.404 829.33 102.404C833.186 102.404 835.113 104.742 835.113 109.418V120H831.141V110.49C831.141 108.85 830.941 107.689 830.543 107.01C830.133 106.318 829.459 105.973 828.521 105.973C827.432 105.973 826.635 106.383 826.131 107.203C825.639 108.023 825.393 109.342 825.393 111.158V120H821.42V110.543C821.42 107.496 820.541 105.973 818.783 105.973C817.67 105.973 816.855 106.389 816.34 107.221C815.836 108.053 815.584 109.365 815.584 111.158V120H811.629V102.879ZM855.697 112.371H843.428C843.533 113.777 843.99 114.896 844.799 115.729C845.607 116.549 846.645 116.959 847.91 116.959C848.895 116.959 849.709 116.725 850.354 116.256C850.986 115.787 851.707 114.92 852.516 113.654L855.855 115.518C855.34 116.396 854.795 117.152 854.221 117.785C853.646 118.406 853.031 118.922 852.375 119.332C851.719 119.73 851.01 120.023 850.248 120.211C849.486 120.398 848.66 120.492 847.77 120.492C845.215 120.492 843.164 119.672 841.617 118.031C840.07 116.379 839.297 114.188 839.297 111.457C839.297 108.75 840.047 106.559 841.547 104.883C843.059 103.23 845.062 102.404 847.559 102.404C850.078 102.404 852.07 103.207 853.535 104.812C854.988 106.406 855.715 108.615 855.715 111.439L855.697 112.371ZM851.637 109.137C851.086 107.027 849.756 105.973 847.646 105.973C847.166 105.973 846.715 106.049 846.293 106.201C845.871 106.342 845.484 106.553 845.133 106.834C844.793 107.104 844.5 107.432 844.254 107.818C844.008 108.205 843.82 108.645 843.691 109.137H851.637Z" fill="#777777"/>
<rect x="595" y="720" width="310" height="55" rx="27.5" fill="url(#paint0_linear)"/>
<path d="M691.976 747.744C691.864 746.976 691.552 746.4 691.04 746.016C690.544 745.616 689.912 745.416 689.144 745.416C688.792 745.416 688.416 745.48 688.016 745.608C687.616 745.72 687.248 745.944 686.912 746.28C686.576 746.6 686.296 747.056 686.072 747.648C685.848 748.224 685.736 748.984 685.736 749.928C685.736 750.44 685.792 750.952 685.904 751.464C686.032 751.976 686.224 752.432 686.48 752.832C686.752 753.232 687.096 753.56 687.512 753.816C687.928 754.056 688.432 754.176 689.024 754.176C689.824 754.176 690.48 753.928 690.992 753.432C691.52 752.936 691.848 752.24 691.976 751.344H694.712C694.456 752.96 693.84 754.2 692.864 755.064C691.904 755.912 690.624 756.336 689.024 756.336C688.048 756.336 687.184 756.176 686.432 755.856C685.696 755.52 685.072 755.072 684.56 754.512C684.048 753.936 683.656 753.256 683.384 752.472C683.128 751.688 683 750.84 683 749.928C683 749 683.128 748.128 683.384 747.312C683.64 746.496 684.024 745.792 684.536 745.2C685.048 744.592 685.68 744.12 686.432 743.784C687.2 743.432 688.096 743.256 689.12 743.256C689.84 743.256 690.52 743.352 691.16 743.544C691.816 743.72 692.392 743.992 692.888 744.36C693.4 744.728 693.816 745.192 694.136 745.752C694.456 746.312 694.648 746.976 694.712 747.744H691.976ZM702.624 756.336C701.632 756.336 700.744 756.176 699.96 755.856C699.192 755.52 698.536 755.064 697.992 754.488C697.464 753.912 697.056 753.224 696.768 752.424C696.496 751.624 696.36 750.744 696.36 749.784C696.36 748.84 696.496 747.968 696.768 747.168C697.056 746.368 697.464 745.68 697.992 745.104C698.536 744.528 699.192 744.08 699.96 743.76C700.744 743.424 701.632 743.256 702.624 743.256C703.616 743.256 704.496 743.424 705.264 743.76C706.048 744.08 706.704 744.528 707.232 745.104C707.776 745.68 708.184 746.368 708.456 747.168C708.744 747.968 708.888 748.84 708.888 749.784C708.888 750.744 708.744 751.624 708.456 752.424C708.184 753.224 707.776 753.912 707.232 754.488C706.704 755.064 706.048 755.52 705.264 755.856C704.496 756.176 703.616 756.336 702.624 756.336ZM702.624 754.176C703.232 754.176 703.76 754.048 704.208 753.792C704.656 753.536 705.024 753.2 705.312 752.784C705.6 752.368 705.808 751.904 705.936 751.392C706.08 750.864 706.152 750.328 706.152 749.784C706.152 749.256 706.08 748.728 705.936 748.2C705.808 747.672 705.6 747.208 705.312 746.808C705.024 746.392 704.656 746.056 704.208 745.8C703.76 745.544 703.232 745.416 702.624 745.416C702.016 745.416 701.488 745.544 701.04 745.8C700.592 746.056 700.224 746.392 699.936 746.808C699.648 747.208 699.432 747.672 699.288 748.2C699.16 748.728 699.096 749.256 699.096 749.784C699.096 750.328 699.16 750.864 699.288 751.392C699.432 751.904 699.648 752.368 699.936 752.784C700.224 753.2 700.592 753.536 701.04 753.792C701.488 754.048 702.016 754.176 702.624 754.176ZM711.163 743.592H713.755V745.416L713.803 745.464C714.219 744.776 714.763 744.24 715.435 743.856C716.107 743.456 716.851 743.256 717.667 743.256C719.027 743.256 720.099 743.608 720.883 744.312C721.667 745.016 722.059 746.072 722.059 747.48V756H719.323V748.2C719.291 747.224 719.083 746.52 718.699 746.088C718.315 745.64 717.715 745.416 716.899 745.416C716.435 745.416 716.019 745.504 715.651 745.68C715.283 745.84 714.971 746.072 714.715 746.376C714.459 746.664 714.259 747.008 714.115 747.408C713.971 747.808 713.899 748.232 713.899 748.68V756H711.163V743.592ZM732.576 738.864H735.312V741.456H732.576V738.864ZM723.72 743.592H725.76V742.56C725.76 741.776 725.856 741.144 726.048 740.664C726.24 740.168 726.496 739.792 726.816 739.536C727.136 739.264 727.496 739.088 727.896 739.008C728.312 738.912 728.744 738.864 729.192 738.864C730.072 738.864 730.712 738.92 731.112 739.032V741.168C730.936 741.12 730.744 741.088 730.536 741.072C730.344 741.04 730.112 741.024 729.84 741.024C729.472 741.024 729.152 741.112 728.88 741.288C728.624 741.464 728.496 741.808 728.496 742.32V743.592H730.824V745.632H728.496V756H725.76V745.632H723.72V743.592ZM732.576 743.592H735.312V756H732.576V743.592ZM738.28 743.592H740.848V745.992H740.896C740.976 745.656 741.128 745.328 741.352 745.008C741.592 744.688 741.872 744.4 742.192 744.144C742.528 743.872 742.896 743.656 743.296 743.496C743.696 743.336 744.104 743.256 744.52 743.256C744.84 743.256 745.056 743.264 745.168 743.28C745.296 743.296 745.424 743.312 745.552 743.328V745.968C745.36 745.936 745.16 745.912 744.952 745.896C744.76 745.864 744.568 745.848 744.376 745.848C743.912 745.848 743.472 745.944 743.056 746.136C742.656 746.312 742.304 746.584 742 746.952C741.696 747.304 741.456 747.744 741.28 748.272C741.104 748.8 741.016 749.408 741.016 750.096V756H738.28V743.592ZM746.717 743.592H749.309V745.32H749.381C749.589 745.016 749.813 744.736 750.053 744.48C750.293 744.224 750.557 744.008 750.845 743.832C751.149 743.656 751.493 743.52 751.877 743.424C752.261 743.312 752.701 743.256 753.197 743.256C753.949 743.256 754.645 743.424 755.285 743.76C755.941 744.096 756.405 744.616 756.677 745.32C757.141 744.68 757.677 744.176 758.285 743.808C758.893 743.44 759.653 743.256 760.565 743.256C761.877 743.256 762.893 743.576 763.613 744.216C764.349 744.856 764.717 745.928 764.717 747.432V756H761.981V748.752C761.981 748.256 761.965 747.808 761.933 747.408C761.901 746.992 761.805 746.64 761.645 746.352C761.501 746.048 761.277 745.816 760.973 745.656C760.669 745.496 760.253 745.416 759.725 745.416C758.797 745.416 758.125 745.704 757.709 746.28C757.293 746.856 757.085 747.672 757.085 748.728V756H754.349V748.032C754.349 747.168 754.189 746.52 753.869 746.088C753.565 745.64 752.997 745.416 752.165 745.416C751.813 745.416 751.469 745.488 751.133 745.632C750.813 745.776 750.525 745.984 750.269 746.256C750.029 746.528 749.829 746.864 749.669 747.264C749.525 747.664 749.453 748.12 749.453 748.632V756H746.717V743.592ZM773.032 743.592H775.096V739.872H777.832V743.592H780.304V745.632H777.832V752.256C777.832 752.544 777.84 752.792 777.856 753C777.888 753.208 777.944 753.384 778.024 753.528C778.12 753.672 778.256 753.784 778.432 753.864C778.608 753.928 778.848 753.96 779.152 753.96C779.344 753.96 779.536 753.96 779.728 753.96C779.92 753.944 780.112 753.912 780.304 753.864V755.976C780 756.008 779.704 756.04 779.416 756.072C779.128 756.104 778.832 756.12 778.528 756.12C777.808 756.12 777.224 756.056 776.776 755.928C776.344 755.784 776 755.584 775.744 755.328C775.504 755.056 775.336 754.72 775.24 754.32C775.16 753.92 775.112 753.464 775.096 752.952V745.632H773.032V743.592ZM782.344 738.864H785.08V741.456H782.344V738.864ZM782.344 743.592H785.08V756H782.344V743.592ZM788.061 743.592H790.653V745.32H790.725C790.933 745.016 791.157 744.736 791.397 744.48C791.637 744.224 791.901 744.008 792.189 743.832C792.493 743.656 792.837 743.52 793.221 743.424C793.605 743.312 794.045 743.256 794.541 743.256C795.293 743.256 795.989 743.424 796.629 743.76C797.285 744.096 797.749 744.616 798.021 745.32C798.485 744.68 799.021 744.176 799.629 743.808C800.237 743.44 800.997 743.256 801.909 743.256C803.221 743.256 804.237 743.576 804.957 744.216C805.693 744.856 806.061 745.928 806.061 747.432V756H803.325V748.752C803.325 748.256 803.309 747.808 803.277 747.408C803.245 746.992 803.149 746.64 802.989 746.352C802.845 746.048 802.621 745.816 802.317 745.656C802.013 745.496 801.597 745.416 801.069 745.416C800.141 745.416 799.469 745.704 799.053 746.28C798.637 746.856 798.429 747.672 798.429 748.728V756H795.693V748.032C795.693 747.168 795.533 746.52 795.213 746.088C794.909 745.64 794.341 745.416 793.509 745.416C793.157 745.416 792.813 745.488 792.477 745.632C792.157 745.776 791.869 745.984 791.613 746.256C791.373 746.528 791.173 746.864 791.013 747.264C790.869 747.664 790.797 748.12 790.797 748.632V756H788.061V743.592ZM817.464 748.704C817.432 748.272 817.336 747.856 817.176 747.456C817.032 747.056 816.824 746.712 816.552 746.424C816.296 746.12 815.976 745.88 815.592 745.704C815.224 745.512 814.808 745.416 814.344 745.416C813.864 745.416 813.424 745.504 813.024 745.68C812.64 745.84 812.304 746.072 812.016 746.376C811.744 746.664 811.52 747.008 811.344 747.408C811.184 747.808 811.096 748.24 811.08 748.704H817.464ZM811.08 750.504C811.08 750.984 811.144 751.448 811.272 751.896C811.416 752.344 811.624 752.736 811.896 753.072C812.168 753.408 812.512 753.68 812.928 753.888C813.344 754.08 813.84 754.176 814.416 754.176C815.216 754.176 815.856 754.008 816.336 753.672C816.832 753.32 817.2 752.8 817.44 752.112H820.032C819.888 752.784 819.64 753.384 819.288 753.912C818.936 754.44 818.512 754.888 818.016 755.256C817.52 755.608 816.96 755.872 816.336 756.048C815.728 756.24 815.088 756.336 814.416 756.336C813.44 756.336 812.576 756.176 811.824 755.856C811.072 755.536 810.432 755.088 809.904 754.512C809.392 753.936 809 753.248 808.728 752.448C808.472 751.648 808.344 750.768 808.344 749.808C808.344 748.928 808.48 748.096 808.752 747.312C809.04 746.512 809.44 745.816 809.952 745.224C810.48 744.616 811.112 744.136 811.848 743.784C812.584 743.432 813.416 743.256 814.344 743.256C815.32 743.256 816.192 743.464 816.96 743.88C817.744 744.28 818.392 744.816 818.904 745.488C819.416 746.16 819.784 746.936 820.008 747.816C820.248 748.68 820.312 749.576 820.2 750.504H811.08Z" fill="white"/>
<path d="M632.686 204.984C633.262 204.984 633.822 204.936 634.366 204.84C634.91 204.744 635.398 204.584 635.83 204.36C636.278 204.136 636.654 203.848 636.958 203.496C637.278 203.144 637.486 202.712 637.582 202.2H639.814V219H636.814V207.144H632.686V204.984ZM651.422 201.864C652.622 201.864 653.598 202.144 654.35 202.704C655.118 203.248 655.71 203.952 656.126 204.816C656.558 205.664 656.846 206.6 656.99 207.624C657.15 208.648 657.23 209.64 657.23 210.6C657.23 211.56 657.15 212.552 656.99 213.576C656.846 214.6 656.558 215.544 656.126 216.408C655.71 217.256 655.118 217.96 654.35 218.52C653.598 219.064 652.622 219.336 651.422 219.336C650.222 219.336 649.238 219.064 648.47 218.52C647.718 217.96 647.126 217.256 646.694 216.408C646.278 215.544 645.99 214.6 645.83 213.576C645.686 212.552 645.614 211.56 645.614 210.6C645.614 209.64 645.686 208.648 645.83 207.624C645.99 206.6 646.278 205.664 646.694 204.816C647.126 203.952 647.718 203.248 648.47 202.704C649.238 202.144 650.222 201.864 651.422 201.864ZM651.422 217.056C652.014 217.056 652.51 216.888 652.91 216.552C653.31 216.2 653.622 215.736 653.846 215.16C654.086 214.568 654.254 213.88 654.35 213.096C654.446 212.312 654.494 211.48 654.494 210.6C654.494 209.72 654.446 208.896 654.35 208.128C654.254 207.344 654.086 206.656 653.846 206.064C653.622 205.472 653.31 205.008 652.91 204.672C652.51 204.32 652.014 204.144 651.422 204.144C650.814 204.144 650.31 204.32 649.91 204.672C649.526 205.008 649.214 205.472 648.974 206.064C648.75 206.656 648.59 207.344 648.494 208.128C648.398 208.896 648.35 209.72 648.35 210.6C648.35 211.48 648.398 212.312 648.494 213.096C648.59 213.88 648.75 214.568 648.974 215.16C649.214 215.736 649.526 216.2 649.91 216.552C650.31 216.888 650.814 217.056 651.422 217.056ZM659.742 215.76H663.078V219H659.742V215.76ZM659.742 206.856H663.078V210.096H659.742V206.856ZM670.238 209.16C670.686 209.176 671.134 209.144 671.582 209.064C672.03 208.984 672.43 208.848 672.782 208.656C673.134 208.448 673.414 208.168 673.622 207.816C673.846 207.464 673.958 207.032 673.958 206.52C673.958 205.8 673.71 205.224 673.214 204.792C672.734 204.36 672.11 204.144 671.342 204.144C670.862 204.144 670.446 204.24 670.094 204.432C669.742 204.624 669.446 204.888 669.206 205.224C668.982 205.544 668.814 205.912 668.702 206.328C668.59 206.728 668.542 207.144 668.558 207.576H665.822C665.854 206.76 666.006 206.008 666.278 205.32C666.55 204.616 666.918 204.008 667.382 203.496C667.862 202.984 668.438 202.584 669.11 202.296C669.782 202.008 670.542 201.864 671.39 201.864C672.046 201.864 672.686 201.96 673.31 202.152C673.95 202.344 674.518 202.624 675.014 202.992C675.526 203.36 675.934 203.832 676.238 204.408C676.542 204.968 676.694 205.616 676.694 206.352C676.694 207.2 676.502 207.944 676.118 208.584C675.734 209.208 675.134 209.664 674.318 209.952V210C675.278 210.192 676.022 210.672 676.55 211.44C677.094 212.192 677.366 213.112 677.366 214.2C677.366 215 677.206 215.72 676.886 216.36C676.566 216.984 676.134 217.52 675.59 217.968C675.046 218.4 674.414 218.736 673.694 218.976C672.974 219.216 672.214 219.336 671.414 219.336C670.438 219.336 669.582 219.2 668.846 218.928C668.126 218.64 667.518 218.24 667.022 217.728C666.542 217.216 666.174 216.6 665.918 215.88C665.662 215.16 665.526 214.36 665.51 213.48H668.246C668.214 214.504 668.462 215.36 668.99 216.048C669.534 216.72 670.342 217.056 671.414 217.056C672.326 217.056 673.086 216.8 673.694 216.288C674.318 215.76 674.63 215.016 674.63 214.056C674.63 213.4 674.502 212.88 674.246 212.496C673.99 212.112 673.654 211.824 673.238 211.632C672.822 211.424 672.35 211.296 671.822 211.248C671.31 211.2 670.782 211.184 670.238 211.2V209.16ZM684.774 201.864C685.974 201.864 686.95 202.144 687.702 202.704C688.47 203.248 689.062 203.952 689.478 204.816C689.91 205.664 690.198 206.6 690.342 207.624C690.502 208.648 690.582 209.64 690.582 210.6C690.582 211.56 690.502 212.552 690.342 213.576C690.198 214.6 689.91 215.544 689.478 216.408C689.062 217.256 688.47 217.96 687.702 218.52C686.95 219.064 685.974 219.336 684.774 219.336C683.574 219.336 682.59 219.064 681.822 218.52C681.07 217.96 680.478 217.256 680.046 216.408C679.63 215.544 679.342 214.6 679.182 213.576C679.038 212.552 678.966 211.56 678.966 210.6C678.966 209.64 679.038 208.648 679.182 207.624C679.342 206.6 679.63 205.664 680.046 204.816C680.478 203.952 681.07 203.248 681.822 202.704C682.59 202.144 683.574 201.864 684.774 201.864ZM684.774 217.056C685.366 217.056 685.862 216.888 686.262 216.552C686.662 216.2 686.974 215.736 687.198 215.16C687.438 214.568 687.606 213.88 687.702 213.096C687.798 212.312 687.846 211.48 687.846 210.6C687.846 209.72 687.798 208.896 687.702 208.128C687.606 207.344 687.438 206.656 687.198 206.064C686.974 205.472 686.662 205.008 686.262 204.672C685.862 204.32 685.366 204.144 684.774 204.144C684.166 204.144 683.662 204.32 683.262 204.672C682.878 205.008 682.566 205.472 682.326 206.064C682.102 206.656 681.942 207.344 681.846 208.128C681.75 208.896 681.702 209.72 681.702 210.6C681.702 211.48 681.75 212.312 681.846 213.096C681.942 213.88 682.102 214.568 682.326 215.16C682.566 215.736 682.878 216.2 683.262 216.552C683.662 216.888 684.166 217.056 684.774 217.056ZM703.27 216.24C703.27 216.576 703.31 216.816 703.39 216.96C703.486 217.104 703.662 217.176 703.918 217.176C703.998 217.176 704.094 217.176 704.206 217.176C704.318 217.176 704.446 217.16 704.59 217.128V219.024C704.494 219.056 704.366 219.088 704.206 219.12C704.062 219.168 703.91 219.208 703.75 219.24C703.59 219.272 703.43 219.296 703.27 219.312C703.11 219.328 702.974 219.336 702.862 219.336C702.302 219.336 701.838 219.224 701.47 219C701.102 218.776 700.862 218.384 700.75 217.824C700.206 218.352 699.534 218.736 698.734 218.976C697.95 219.216 697.19 219.336 696.454 219.336C695.894 219.336 695.358 219.256 694.846 219.096C694.334 218.952 693.878 218.736 693.478 218.448C693.094 218.144 692.782 217.768 692.542 217.32C692.318 216.856 692.206 216.32 692.206 215.712C692.206 214.944 692.342 214.32 692.614 213.84C692.902 213.36 693.27 212.984 693.718 212.712C694.182 212.44 694.694 212.248 695.254 212.136C695.83 212.008 696.406 211.912 696.982 211.848C697.478 211.752 697.95 211.688 698.398 211.656C698.846 211.608 699.238 211.536 699.574 211.44C699.926 211.344 700.198 211.2 700.39 211.008C700.598 210.8 700.702 210.496 700.702 210.096C700.702 209.744 700.614 209.456 700.438 209.232C700.278 209.008 700.07 208.84 699.814 208.728C699.574 208.6 699.302 208.52 698.998 208.488C698.694 208.44 698.406 208.416 698.134 208.416C697.366 208.416 696.734 208.576 696.238 208.896C695.742 209.216 695.462 209.712 695.398 210.384H692.662C692.71 209.584 692.902 208.92 693.238 208.392C693.574 207.864 693.998 207.44 694.51 207.12C695.038 206.8 695.63 206.576 696.286 206.448C696.942 206.32 697.614 206.256 698.302 206.256C698.91 206.256 699.51 206.32 700.102 206.448C700.694 206.576 701.222 206.784 701.686 207.072C702.166 207.36 702.55 207.736 702.838 208.2C703.126 208.648 703.27 209.2 703.27 209.856V216.24ZM700.534 212.784C700.118 213.056 699.606 213.224 698.998 213.288C698.39 213.336 697.782 213.416 697.174 213.528C696.886 213.576 696.606 213.648 696.334 213.744C696.062 213.824 695.822 213.944 695.614 214.104C695.406 214.248 695.238 214.448 695.11 214.704C694.998 214.944 694.942 215.24 694.942 215.592C694.942 215.896 695.03 216.152 695.206 216.36C695.382 216.568 695.59 216.736 695.83 216.864C696.086 216.976 696.358 217.056 696.646 217.104C696.95 217.152 697.222 217.176 697.462 217.176C697.766 217.176 698.094 217.136 698.446 217.056C698.798 216.976 699.126 216.84 699.43 216.648C699.75 216.456 700.014 216.216 700.222 215.928C700.43 215.624 700.534 215.256 700.534 214.824V212.784ZM706.213 206.592H708.805V208.32H708.877C709.085 208.016 709.309 207.736 709.549 207.48C709.789 207.224 710.053 207.008 710.341 206.832C710.645 206.656 710.989 206.52 711.373 206.424C711.757 206.312 712.197 206.256 712.693 206.256C713.445 206.256 714.141 206.424 714.781 206.76C715.437 207.096 715.901 207.616 716.173 208.32C716.637 207.68 717.173 207.176 717.781 206.808C718.389 206.44 719.149 206.256 720.061 206.256C721.373 206.256 722.389 206.576 723.109 207.216C723.845 207.856 724.213 208.928 724.213 210.432V219H721.477V211.752C721.477 211.256 721.461 210.808 721.429 210.408C721.397 209.992 721.301 209.64 721.141 209.352C720.997 209.048 720.773 208.816 720.469 208.656C720.165 208.496 719.749 208.416 719.221 208.416C718.293 208.416 717.621 208.704 717.205 209.28C716.789 209.856 716.581 210.672 716.581 211.728V219H713.845V211.032C713.845 210.168 713.685 209.52 713.365 209.088C713.061 208.64 712.493 208.416 711.661 208.416C711.309 208.416 710.965 208.488 710.629 208.632C710.309 208.776 710.021 208.984 709.765 209.256C709.525 209.528 709.325 209.864 709.165 210.264C709.021 210.664 708.949 211.12 708.949 211.632V219H706.213V206.592ZM733.512 211.176H740.496V213.768H733.512V211.176ZM749.616 204.984C750.192 204.984 750.752 204.936 751.296 204.84C751.84 204.744 752.328 204.584 752.76 204.36C753.208 204.136 753.584 203.848 753.888 203.496C754.208 203.144 754.416 202.712 754.512 202.2H756.744V219H753.744V207.144H749.616V204.984ZM762.952 204.984C763.528 204.984 764.088 204.936 764.632 204.84C765.176 204.744 765.664 204.584 766.096 204.36C766.544 204.136 766.92 203.848 767.224 203.496C767.544 203.144 767.752 202.712 767.848 202.2H770.08V219H767.08V207.144H762.952V204.984ZM776.672 215.76H780.008V219H776.672V215.76ZM776.672 206.856H780.008V210.096H776.672V206.856ZM787.167 209.16C787.615 209.176 788.063 209.144 788.511 209.064C788.959 208.984 789.359 208.848 789.711 208.656C790.063 208.448 790.343 208.168 790.551 207.816C790.775 207.464 790.887 207.032 790.887 206.52C790.887 205.8 790.639 205.224 790.143 204.792C789.663 204.36 789.039 204.144 788.271 204.144C787.791 204.144 787.375 204.24 787.023 204.432C786.671 204.624 786.375 204.888 786.135 205.224C785.911 205.544 785.743 205.912 785.631 206.328C785.519 206.728 785.471 207.144 785.487 207.576H782.751C782.783 206.76 782.935 206.008 783.207 205.32C783.479 204.616 783.847 204.008 784.311 203.496C784.791 202.984 785.367 202.584 786.039 202.296C786.711 202.008 787.471 201.864 788.319 201.864C788.975 201.864 789.615 201.96 790.239 202.152C790.879 202.344 791.447 202.624 791.943 202.992C792.455 203.36 792.863 203.832 793.167 204.408C793.471 204.968 793.623 205.616 793.623 206.352C793.623 207.2 793.431 207.944 793.047 208.584C792.663 209.208 792.063 209.664 791.247 209.952V210C792.207 210.192 792.951 210.672 793.479 211.44C794.023 212.192 794.295 213.112 794.295 214.2C794.295 215 794.135 215.72 793.815 216.36C793.495 216.984 793.063 217.52 792.519 217.968C791.975 218.4 791.343 218.736 790.623 218.976C789.903 219.216 789.143 219.336 788.343 219.336C787.367 219.336 786.511 219.2 785.775 218.928C785.055 218.64 784.447 218.24 783.951 217.728C783.471 217.216 783.103 216.6 782.847 215.88C782.591 215.16 782.455 214.36 782.439 213.48H785.175C785.143 214.504 785.391 215.36 785.919 216.048C786.463 216.72 787.271 217.056 788.343 217.056C789.255 217.056 790.015 216.8 790.623 216.288C791.247 215.76 791.559 215.016 791.559 214.056C791.559 213.4 791.431 212.88 791.175 212.496C790.919 212.112 790.583 211.824 790.167 211.632C789.751 211.424 789.279 211.296 788.751 211.248C788.239 211.2 787.711 211.184 787.167 211.2V209.16ZM801.703 201.864C802.903 201.864 803.879 202.144 804.631 202.704C805.399 203.248 805.991 203.952 806.407 204.816C806.839 205.664 807.127 206.6 807.271 207.624C807.431 208.648 807.511 209.64 807.511 210.6C807.511 211.56 807.431 212.552 807.271 213.576C807.127 214.6 806.839 215.544 806.407 216.408C805.991 217.256 805.399 217.96 804.631 218.52C803.879 219.064 802.903 219.336 801.703 219.336C800.503 219.336 799.519 219.064 798.751 218.52C797.999 217.96 797.407 217.256 796.975 216.408C796.559 215.544 796.271 214.6 796.111 213.576C795.967 212.552 795.895 211.56 795.895 210.6C795.895 209.64 795.967 208.648 796.111 207.624C796.271 206.6 796.559 205.664 796.975 204.816C797.407 203.952 797.999 203.248 798.751 202.704C799.519 202.144 800.503 201.864 801.703 201.864ZM801.703 217.056C802.295 217.056 802.791 216.888 803.191 216.552C803.591 216.2 803.903 215.736 804.127 215.16C804.367 214.568 804.535 213.88 804.631 213.096C804.727 212.312 804.775 211.48 804.775 210.6C804.775 209.72 804.727 208.896 804.631 208.128C804.535 207.344 804.367 206.656 804.127 206.064C803.903 205.472 803.591 205.008 803.191 204.672C802.791 204.32 802.295 204.144 801.703 204.144C801.095 204.144 800.591 204.32 800.191 204.672C799.807 205.008 799.495 205.472 799.255 206.064C799.031 206.656 798.871 207.344 798.775 208.128C798.679 208.896 798.631 209.72 798.631 210.6C798.631 211.48 798.679 212.312 798.775 213.096C798.871 213.88 799.031 214.568 799.255 215.16C799.495 215.736 799.807 216.2 800.191 216.552C800.591 216.888 801.095 217.056 801.703 217.056ZM820.199 216.24C820.199 216.576 820.239 216.816 820.319 216.96C820.415 217.104 820.591 217.176 820.847 217.176C820.927 217.176 821.023 217.176 821.135 217.176C821.247 217.176 821.375 217.16 821.519 217.128V219.024C821.423 219.056 821.295 219.088 821.135 219.12C820.991 219.168 820.839 219.208 820.679 219.24C820.519 219.272 820.359 219.296 820.199 219.312C820.039 219.328 819.903 219.336 819.791 219.336C819.231 219.336 818.767 219.224 818.399 219C818.031 218.776 817.791 218.384 817.679 217.824C817.135 218.352 816.463 218.736 815.663 218.976C814.879 219.216 814.119 219.336 813.383 219.336C812.823 219.336 812.287 219.256 811.775 219.096C811.263 218.952 810.807 218.736 810.407 218.448C810.023 218.144 809.711 217.768 809.471 217.32C809.247 216.856 809.135 216.32 809.135 215.712C809.135 214.944 809.271 214.32 809.543 213.84C809.831 213.36 810.199 212.984 810.647 212.712C811.111 212.44 811.623 212.248 812.183 212.136C812.759 212.008 813.335 211.912 813.911 211.848C814.407 211.752 814.879 211.688 815.327 211.656C815.775 211.608 816.167 211.536 816.503 211.44C816.855 211.344 817.127 211.2 817.319 211.008C817.527 210.8 817.631 210.496 817.631 210.096C817.631 209.744 817.543 209.456 817.367 209.232C817.207 209.008 816.999 208.84 816.743 208.728C816.503 208.6 816.231 208.52 815.927 208.488C815.623 208.44 815.335 208.416 815.063 208.416C814.295 208.416 813.663 208.576 813.167 208.896C812.671 209.216 812.391 209.712 812.327 210.384H809.591C809.639 209.584 809.831 208.92 810.167 208.392C810.503 207.864 810.927 207.44 811.439 207.12C811.967 206.8 812.559 206.576 813.215 206.448C813.871 206.32 814.543 206.256 815.231 206.256C815.839 206.256 816.439 206.32 817.031 206.448C817.623 206.576 818.151 206.784 818.615 207.072C819.095 207.36 819.479 207.736 819.767 208.2C820.055 208.648 820.199 209.2 820.199 209.856V216.24ZM817.463 212.784C817.047 213.056 816.535 213.224 815.927 213.288C815.319 213.336 814.711 213.416 814.103 213.528C813.815 213.576 813.535 213.648 813.263 213.744C812.991 213.824 812.751 213.944 812.543 214.104C812.335 214.248 812.167 214.448 812.039 214.704C811.927 214.944 811.871 215.24 811.871 215.592C811.871 215.896 811.959 216.152 812.135 216.36C812.311 216.568 812.519 216.736 812.759 216.864C813.015 216.976 813.287 217.056 813.575 217.104C813.879 217.152 814.151 217.176 814.391 217.176C814.695 217.176 815.023 217.136 815.375 217.056C815.727 216.976 816.055 216.84 816.359 216.648C816.679 216.456 816.943 216.216 817.151 215.928C817.359 215.624 817.463 215.256 817.463 214.824V212.784ZM823.143 206.592H825.735V208.32H825.807C826.015 208.016 826.239 207.736 826.479 207.48C826.719 207.224 826.983 207.008 827.271 206.832C827.575 206.656 827.919 206.52 828.303 206.424C828.687 206.312 829.127 206.256 829.623 206.256C830.375 206.256 831.071 206.424 831.711 206.76C832.367 207.096 832.831 207.616 833.103 208.32C833.567 207.68 834.103 207.176 834.711 206.808C835.319 206.44 836.079 206.256 836.991 206.256C838.303 206.256 839.319 206.576 840.039 207.216C840.775 207.856 841.143 208.928 841.143 210.432V219H838.407V211.752C838.407 211.256 838.391 210.808 838.359 210.408C838.327 209.992 838.231 209.64 838.071 209.352C837.927 209.048 837.703 208.816 837.399 208.656C837.095 208.496 836.679 208.416 836.151 208.416C835.223 208.416 834.551 208.704 834.135 209.28C833.719 209.856 833.511 210.672 833.511 211.728V219H830.775V211.032C830.775 210.168 830.615 209.52 830.295 209.088C829.991 208.64 829.423 208.416 828.591 208.416C828.239 208.416 827.895 208.488 827.559 208.632C827.239 208.776 826.951 208.984 826.695 209.256C826.455 209.528 826.255 209.864 826.095 210.264C825.951 210.664 825.879 211.12 825.879 211.632V219H823.143V206.592Z" fill="black"/>
<path d="M656.822 390H645.35C645.366 388.608 645.702 387.392 646.358 386.352C647.014 385.312 647.91 384.408 649.046 383.64C649.59 383.24 650.158 382.856 650.75 382.488C651.342 382.104 651.886 381.696 652.382 381.264C652.878 380.832 653.286 380.368 653.606 379.872C653.926 379.36 654.094 378.776 654.11 378.12C654.11 377.816 654.07 377.496 653.99 377.16C653.926 376.808 653.79 376.488 653.582 376.2C653.374 375.896 653.086 375.648 652.718 375.456C652.35 375.248 651.87 375.144 651.278 375.144C650.734 375.144 650.278 375.256 649.91 375.48C649.558 375.688 649.27 375.984 649.046 376.368C648.838 376.736 648.678 377.176 648.566 377.688C648.47 378.2 648.414 378.752 648.398 379.344H645.662C645.662 378.416 645.782 377.56 646.022 376.776C646.278 375.976 646.654 375.288 647.15 374.712C647.646 374.136 648.246 373.688 648.95 373.368C649.67 373.032 650.502 372.864 651.446 372.864C652.47 372.864 653.326 373.032 654.014 373.368C654.702 373.704 655.254 374.128 655.67 374.64C656.102 375.152 656.406 375.712 656.582 376.32C656.758 376.912 656.846 377.48 656.846 378.024C656.846 378.696 656.742 379.304 656.534 379.848C656.326 380.392 656.046 380.896 655.694 381.36C655.342 381.808 654.942 382.224 654.494 382.608C654.046 382.992 653.582 383.352 653.102 383.688C652.622 384.024 652.142 384.344 651.662 384.648C651.182 384.952 650.734 385.256 650.318 385.56C649.918 385.864 649.566 386.184 649.262 386.52C648.958 386.84 648.75 387.184 648.638 387.552H656.822V390ZM659.406 386.76H662.742V390H659.406V386.76ZM659.406 377.856H662.742V381.096H659.406V377.856ZM665.702 375.984C666.278 375.984 666.838 375.936 667.382 375.84C667.926 375.744 668.414 375.584 668.846 375.36C669.294 375.136 669.67 374.848 669.974 374.496C670.294 374.144 670.502 373.712 670.598 373.2H672.83V390H669.83V378.144H665.702V375.984ZM680.718 373.2H689.406V375.648H682.758L681.894 379.92L681.942 379.968C682.31 379.552 682.774 379.24 683.334 379.032C683.91 378.808 684.478 378.696 685.038 378.696C685.87 378.696 686.614 378.84 687.27 379.128C687.926 379.4 688.478 379.792 688.926 380.304C689.374 380.8 689.71 381.392 689.934 382.08C690.174 382.768 690.294 383.512 690.294 384.312C690.294 384.984 690.182 385.68 689.958 386.4C689.75 387.104 689.406 387.752 688.926 388.344C688.462 388.92 687.862 389.4 687.126 389.784C686.39 390.152 685.51 390.336 684.486 390.336C683.67 390.336 682.91 390.224 682.206 390C681.518 389.792 680.91 389.472 680.382 389.04C679.854 388.608 679.43 388.08 679.11 387.456C678.806 386.816 678.638 386.072 678.606 385.224H681.342C681.422 386.136 681.734 386.84 682.278 387.336C682.822 387.816 683.542 388.056 684.438 388.056C685.014 388.056 685.502 387.96 685.902 387.768C686.302 387.576 686.622 387.312 686.862 386.976C687.118 386.64 687.294 386.248 687.39 385.8C687.502 385.352 687.558 384.872 687.558 384.36C687.558 383.896 687.494 383.456 687.366 383.04C687.238 382.608 687.046 382.232 686.79 381.912C686.534 381.592 686.198 381.336 685.782 381.144C685.382 380.952 684.91 380.856 684.366 380.856C683.79 380.856 683.246 380.968 682.734 381.192C682.238 381.4 681.878 381.8 681.654 382.392H678.918L680.718 373.2ZM692.614 377.592H695.206V379.272H695.254C695.638 378.552 696.174 378.04 696.862 377.736C697.55 377.416 698.294 377.256 699.094 377.256C700.07 377.256 700.918 377.432 701.638 377.784C702.374 378.12 702.982 378.592 703.462 379.2C703.942 379.792 704.302 380.488 704.542 381.288C704.782 382.088 704.902 382.944 704.902 383.856C704.902 384.688 704.79 385.496 704.566 386.28C704.358 387.064 704.03 387.76 703.582 388.368C703.15 388.96 702.598 389.44 701.926 389.808C701.254 390.16 700.462 390.336 699.55 390.336C699.15 390.336 698.75 390.296 698.35 390.216C697.95 390.152 697.566 390.04 697.198 389.88C696.83 389.72 696.486 389.52 696.166 389.28C695.862 389.024 695.606 388.728 695.398 388.392H695.35V394.584H692.614V377.592ZM702.166 383.808C702.166 383.248 702.094 382.704 701.95 382.176C701.806 381.648 701.59 381.184 701.302 380.784C701.014 380.368 700.654 380.04 700.222 379.8C699.79 379.544 699.294 379.416 698.734 379.416C697.582 379.416 696.71 379.816 696.118 380.616C695.542 381.416 695.254 382.48 695.254 383.808C695.254 384.432 695.326 385.016 695.47 385.56C695.63 386.088 695.862 386.544 696.166 386.928C696.47 387.312 696.83 387.616 697.246 387.84C697.678 388.064 698.174 388.176 698.734 388.176C699.358 388.176 699.886 388.048 700.318 387.792C700.75 387.536 701.102 387.208 701.374 386.808C701.662 386.392 701.862 385.928 701.974 385.416C702.102 384.888 702.166 384.352 702.166 383.808ZM707.213 377.592H709.805V379.32H709.877C710.085 379.016 710.309 378.736 710.549 378.48C710.789 378.224 711.053 378.008 711.341 377.832C711.645 377.656 711.989 377.52 712.373 377.424C712.757 377.312 713.197 377.256 713.693 377.256C714.445 377.256 715.141 377.424 715.781 377.76C716.437 378.096 716.901 378.616 717.173 379.32C717.637 378.68 718.173 378.176 718.781 377.808C719.389 377.44 720.149 377.256 721.061 377.256C722.373 377.256 723.389 377.576 724.109 378.216C724.845 378.856 725.213 379.928 725.213 381.432V390H722.477V382.752C722.477 382.256 722.461 381.808 722.429 381.408C722.397 380.992 722.301 380.64 722.141 380.352C721.997 380.048 721.773 379.816 721.469 379.656C721.165 379.496 720.749 379.416 720.221 379.416C719.293 379.416 718.621 379.704 718.205 380.28C717.789 380.856 717.581 381.672 717.581 382.728V390H714.845V382.032C714.845 381.168 714.685 380.52 714.365 380.088C714.061 379.64 713.493 379.416 712.661 379.416C712.309 379.416 711.965 379.488 711.629 379.632C711.309 379.776 711.021 379.984 710.765 380.256C710.525 380.528 710.325 380.864 710.165 381.264C710.021 381.664 709.949 382.12 709.949 382.632V390H707.213V377.592ZM734.512 382.176H741.496V384.768H734.512V382.176ZM754.816 380.16C755.264 380.176 755.712 380.144 756.16 380.064C756.608 379.984 757.008 379.848 757.36 379.656C757.712 379.448 757.992 379.168 758.2 378.816C758.424 378.464 758.536 378.032 758.536 377.52C758.536 376.8 758.288 376.224 757.792 375.792C757.312 375.36 756.688 375.144 755.92 375.144C755.44 375.144 755.024 375.24 754.672 375.432C754.32 375.624 754.024 375.888 753.784 376.224C753.56 376.544 753.392 376.912 753.28 377.328C753.168 377.728 753.12 378.144 753.136 378.576H750.4C750.432 377.76 750.584 377.008 750.856 376.32C751.128 375.616 751.496 375.008 751.96 374.496C752.44 373.984 753.016 373.584 753.688 373.296C754.36 373.008 755.12 372.864 755.968 372.864C756.624 372.864 757.264 372.96 757.888 373.152C758.528 373.344 759.096 373.624 759.592 373.992C760.104 374.36 760.512 374.832 760.816 375.408C761.12 375.968 761.272 376.616 761.272 377.352C761.272 378.2 761.08 378.944 760.696 379.584C760.312 380.208 759.712 380.664 758.896 380.952V381C759.856 381.192 760.6 381.672 761.128 382.44C761.672 383.192 761.944 384.112 761.944 385.2C761.944 386 761.784 386.72 761.464 387.36C761.144 387.984 760.712 388.52 760.168 388.968C759.624 389.4 758.992 389.736 758.272 389.976C757.552 390.216 756.792 390.336 755.992 390.336C755.016 390.336 754.16 390.2 753.424 389.928C752.704 389.64 752.096 389.24 751.6 388.728C751.12 388.216 750.752 387.6 750.496 386.88C750.24 386.16 750.104 385.36 750.088 384.48H752.824C752.792 385.504 753.04 386.36 753.568 387.048C754.112 387.72 754.92 388.056 755.992 388.056C756.904 388.056 757.664 387.8 758.272 387.288C758.896 386.76 759.208 386.016 759.208 385.056C759.208 384.4 759.08 383.88 758.824 383.496C758.568 383.112 758.232 382.824 757.816 382.632C757.4 382.424 756.928 382.296 756.4 382.248C755.888 382.2 755.36 382.184 754.816 382.2V380.16ZM764.336 386.76H767.672V390H764.336V386.76ZM764.336 377.856H767.672V381.096H764.336V377.856ZM770.631 375.984C771.207 375.984 771.767 375.936 772.311 375.84C772.855 375.744 773.343 375.584 773.775 375.36C774.223 375.136 774.599 374.848 774.903 374.496C775.223 374.144 775.431 373.712 775.527 373.2H777.759V390H774.759V378.144H770.631V375.984ZM785.647 373.2H794.335V375.648H787.687L786.823 379.92L786.871 379.968C787.239 379.552 787.703 379.24 788.263 379.032C788.839 378.808 789.407 378.696 789.967 378.696C790.799 378.696 791.543 378.84 792.199 379.128C792.855 379.4 793.407 379.792 793.855 380.304C794.303 380.8 794.639 381.392 794.863 382.08C795.103 382.768 795.223 383.512 795.223 384.312C795.223 384.984 795.111 385.68 794.887 386.4C794.679 387.104 794.335 387.752 793.855 388.344C793.391 388.92 792.791 389.4 792.055 389.784C791.319 390.152 790.439 390.336 789.415 390.336C788.599 390.336 787.839 390.224 787.135 390C786.447 389.792 785.839 389.472 785.311 389.04C784.783 388.608 784.359 388.08 784.039 387.456C783.735 386.816 783.567 386.072 783.535 385.224H786.271C786.351 386.136 786.663 386.84 787.207 387.336C787.751 387.816 788.471 388.056 789.367 388.056C789.943 388.056 790.431 387.96 790.831 387.768C791.231 387.576 791.551 387.312 791.791 386.976C792.047 386.64 792.223 386.248 792.319 385.8C792.431 385.352 792.487 384.872 792.487 384.36C792.487 383.896 792.423 383.456 792.295 383.04C792.167 382.608 791.975 382.232 791.719 381.912C791.463 381.592 791.127 381.336 790.711 381.144C790.311 380.952 789.839 380.856 789.295 380.856C788.719 380.856 788.175 380.968 787.663 381.192C787.167 381.4 786.807 381.8 786.583 382.392H783.847L785.647 373.2ZM797.543 377.592H800.135V379.272H800.183C800.567 378.552 801.103 378.04 801.791 377.736C802.479 377.416 803.223 377.256 804.023 377.256C804.999 377.256 805.847 377.432 806.567 377.784C807.303 378.12 807.911 378.592 808.391 379.2C808.871 379.792 809.231 380.488 809.471 381.288C809.711 382.088 809.831 382.944 809.831 383.856C809.831 384.688 809.719 385.496 809.495 386.28C809.287 387.064 808.959 387.76 808.511 388.368C808.079 388.96 807.527 389.44 806.855 389.808C806.183 390.16 805.391 390.336 804.479 390.336C804.079 390.336 803.679 390.296 803.279 390.216C802.879 390.152 802.495 390.04 802.127 389.88C801.759 389.72 801.415 389.52 801.095 389.28C800.791 389.024 800.535 388.728 800.327 388.392H800.279V394.584H797.543V377.592ZM807.095 383.808C807.095 383.248 807.023 382.704 806.879 382.176C806.735 381.648 806.519 381.184 806.231 380.784C805.943 380.368 805.583 380.04 805.151 379.8C804.719 379.544 804.223 379.416 803.663 379.416C802.511 379.416 801.639 379.816 801.047 380.616C800.471 381.416 800.183 382.48 800.183 383.808C800.183 384.432 800.255 385.016 800.399 385.56C800.559 386.088 800.791 386.544 801.095 386.928C801.399 387.312 801.759 387.616 802.175 387.84C802.607 388.064 803.103 388.176 803.663 388.176C804.287 388.176 804.815 388.048 805.247 387.792C805.679 387.536 806.031 387.208 806.303 386.808C806.591 386.392 806.791 385.928 806.903 385.416C807.031 384.888 807.095 384.352 807.095 383.808ZM812.143 377.592H814.735V379.32H814.807C815.015 379.016 815.239 378.736 815.479 378.48C815.719 378.224 815.983 378.008 816.271 377.832C816.575 377.656 816.919 377.52 817.303 377.424C817.687 377.312 818.127 377.256 818.623 377.256C819.375 377.256 820.071 377.424 820.711 377.76C821.367 378.096 821.831 378.616 822.103 379.32C822.567 378.68 823.103 378.176 823.711 377.808C824.319 377.44 825.079 377.256 825.991 377.256C827.303 377.256 828.319 377.576 829.039 378.216C829.775 378.856 830.143 379.928 830.143 381.432V390H827.407V382.752C827.407 382.256 827.391 381.808 827.359 381.408C827.327 380.992 827.231 380.64 827.071 380.352C826.927 380.048 826.703 379.816 826.399 379.656C826.095 379.496 825.679 379.416 825.151 379.416C824.223 379.416 823.551 379.704 823.135 380.28C822.719 380.856 822.511 381.672 822.511 382.728V390H819.775V382.032C819.775 381.168 819.615 380.52 819.295 380.088C818.991 379.64 818.423 379.416 817.591 379.416C817.239 379.416 816.895 379.488 816.559 379.632C816.239 379.776 815.951 379.984 815.695 380.256C815.455 380.528 815.255 380.864 815.095 381.264C814.951 381.664 814.879 382.12 814.879 382.632V390H812.143V377.592Z" fill="black"/>
<path d="M646.762 467.856H651.85V460.464H651.802L646.762 467.856ZM656.602 470.016H654.442V474H651.85V470.016H644.65V467.304L651.85 457.2H654.442V467.856H656.602V470.016ZM659.066 470.76H662.402V474H659.066V470.76ZM659.066 461.856H662.402V465.096H659.066V461.856ZM669.562 464.16C670.01 464.176 670.458 464.144 670.906 464.064C671.354 463.984 671.754 463.848 672.106 463.656C672.458 463.448 672.738 463.168 672.946 462.816C673.17 462.464 673.282 462.032 673.282 461.52C673.282 460.8 673.034 460.224 672.538 459.792C672.058 459.36 671.434 459.144 670.666 459.144C670.186 459.144 669.77 459.24 669.418 459.432C669.066 459.624 668.77 459.888 668.53 460.224C668.306 460.544 668.138 460.912 668.026 461.328C667.914 461.728 667.866 462.144 667.882 462.576H665.146C665.178 461.76 665.33 461.008 665.602 460.32C665.874 459.616 666.242 459.008 666.706 458.496C667.186 457.984 667.762 457.584 668.434 457.296C669.106 457.008 669.866 456.864 670.714 456.864C671.37 456.864 672.01 456.96 672.634 457.152C673.274 457.344 673.842 457.624 674.338 457.992C674.85 458.36 675.258 458.832 675.562 459.408C675.866 459.968 676.018 460.616 676.018 461.352C676.018 462.2 675.826 462.944 675.442 463.584C675.058 464.208 674.458 464.664 673.642 464.952V465C674.602 465.192 675.346 465.672 675.874 466.44C676.418 467.192 676.69 468.112 676.69 469.2C676.69 470 676.53 470.72 676.21 471.36C675.89 471.984 675.458 472.52 674.914 472.968C674.37 473.4 673.738 473.736 673.018 473.976C672.298 474.216 671.538 474.336 670.738 474.336C669.762 474.336 668.906 474.2 668.17 473.928C667.45 473.64 666.842 473.24 666.346 472.728C665.866 472.216 665.498 471.6 665.242 470.88C664.986 470.16 664.85 469.36 664.834 468.48H667.57C667.538 469.504 667.786 470.36 668.314 471.048C668.858 471.72 669.666 472.056 670.738 472.056C671.65 472.056 672.41 471.8 673.018 471.288C673.642 470.76 673.954 470.016 673.954 469.056C673.954 468.4 673.826 467.88 673.57 467.496C673.314 467.112 672.978 466.824 672.562 466.632C672.146 466.424 671.674 466.296 671.146 466.248C670.634 466.2 670.106 466.184 669.562 466.2V464.16ZM684.098 456.864C685.298 456.864 686.274 457.144 687.026 457.704C687.794 458.248 688.386 458.952 688.802 459.816C689.234 460.664 689.522 461.6 689.666 462.624C689.826 463.648 689.906 464.64 689.906 465.6C689.906 466.56 689.826 467.552 689.666 468.576C689.522 469.6 689.234 470.544 688.802 471.408C688.386 472.256 687.794 472.96 687.026 473.52C686.274 474.064 685.298 474.336 684.098 474.336C682.898 474.336 681.914 474.064 681.146 473.52C680.394 472.96 679.802 472.256 679.37 471.408C678.954 470.544 678.666 469.6 678.506 468.576C678.362 467.552 678.29 466.56 678.29 465.6C678.29 464.64 678.362 463.648 678.506 462.624C678.666 461.6 678.954 460.664 679.37 459.816C679.802 458.952 680.394 458.248 681.146 457.704C681.914 457.144 682.898 456.864 684.098 456.864ZM684.098 472.056C684.69 472.056 685.186 471.888 685.586 471.552C685.986 471.2 686.298 470.736 686.522 470.16C686.762 469.568 686.93 468.88 687.026 468.096C687.122 467.312 687.17 466.48 687.17 465.6C687.17 464.72 687.122 463.896 687.026 463.128C686.93 462.344 686.762 461.656 686.522 461.064C686.298 460.472 685.986 460.008 685.586 459.672C685.186 459.32 684.69 459.144 684.098 459.144C683.49 459.144 682.986 459.32 682.586 459.672C682.202 460.008 681.89 460.472 681.65 461.064C681.426 461.656 681.266 462.344 681.17 463.128C681.074 463.896 681.026 464.72 681.026 465.6C681.026 466.48 681.074 467.312 681.17 468.096C681.266 468.88 681.426 469.568 681.65 470.16C681.89 470.736 682.202 471.2 682.586 471.552C682.986 471.888 683.49 472.056 684.098 472.056ZM692.274 461.592H694.866V463.272H694.914C695.298 462.552 695.834 462.04 696.522 461.736C697.21 461.416 697.954 461.256 698.754 461.256C699.73 461.256 700.578 461.432 701.298 461.784C702.034 462.12 702.642 462.592 703.122 463.2C703.602 463.792 703.962 464.488 704.202 465.288C704.442 466.088 704.562 466.944 704.562 467.856C704.562 468.688 704.45 469.496 704.226 470.28C704.018 471.064 703.69 471.76 703.242 472.368C702.81 472.96 702.258 473.44 701.586 473.808C700.914 474.16 700.122 474.336 699.21 474.336C698.81 474.336 698.41 474.296 698.01 474.216C697.61 474.152 697.226 474.04 696.858 473.88C696.49 473.72 696.146 473.52 695.826 473.28C695.522 473.024 695.266 472.728 695.058 472.392H695.01V478.584H692.274V461.592ZM701.826 467.808C701.826 467.248 701.754 466.704 701.61 466.176C701.466 465.648 701.25 465.184 700.962 464.784C700.674 464.368 700.314 464.04 699.882 463.8C699.45 463.544 698.954 463.416 698.394 463.416C697.242 463.416 696.37 463.816 695.778 464.616C695.202 465.416 694.914 466.48 694.914 467.808C694.914 468.432 694.986 469.016 695.13 469.56C695.29 470.088 695.522 470.544 695.826 470.928C696.13 471.312 696.49 471.616 696.906 471.84C697.338 472.064 697.834 472.176 698.394 472.176C699.018 472.176 699.546 472.048 699.978 471.792C700.41 471.536 700.762 471.208 701.034 470.808C701.322 470.392 701.522 469.928 701.634 469.416C701.762 468.888 701.826 468.352 701.826 467.808ZM706.874 461.592H709.466V463.32H709.538C709.746 463.016 709.97 462.736 710.21 462.48C710.45 462.224 710.714 462.008 711.002 461.832C711.306 461.656 711.65 461.52 712.034 461.424C712.418 461.312 712.858 461.256 713.354 461.256C714.106 461.256 714.802 461.424 715.442 461.76C716.098 462.096 716.562 462.616 716.834 463.32C717.298 462.68 717.834 462.176 718.442 461.808C719.05 461.44 719.81 461.256 720.722 461.256C722.034 461.256 723.05 461.576 723.77 462.216C724.506 462.856 724.874 463.928 724.874 465.432V474H722.138V466.752C722.138 466.256 722.122 465.808 722.09 465.408C722.058 464.992 721.962 464.64 721.802 464.352C721.658 464.048 721.434 463.816 721.13 463.656C720.826 463.496 720.41 463.416 719.882 463.416C718.954 463.416 718.282 463.704 717.866 464.28C717.45 464.856 717.242 465.672 717.242 466.728V474H714.506V466.032C714.506 465.168 714.346 464.52 714.026 464.088C713.722 463.64 713.154 463.416 712.322 463.416C711.97 463.416 711.626 463.488 711.29 463.632C710.97 463.776 710.682 463.984 710.426 464.256C710.186 464.528 709.986 464.864 709.826 465.264C709.682 465.664 709.61 466.12 709.61 466.632V474H706.874V461.592ZM734.172 466.176H741.156V468.768H734.172V466.176ZM751.956 457.2H760.644V459.648H753.996L753.132 463.92L753.18 463.968C753.548 463.552 754.012 463.24 754.572 463.032C755.148 462.808 755.716 462.696 756.276 462.696C757.108 462.696 757.852 462.84 758.508 463.128C759.164 463.4 759.716 463.792 760.164 464.304C760.612 464.8 760.948 465.392 761.172 466.08C761.412 466.768 761.532 467.512 761.532 468.312C761.532 468.984 761.42 469.68 761.196 470.4C760.988 471.104 760.644 471.752 760.164 472.344C759.7 472.92 759.1 473.4 758.364 473.784C757.628 474.152 756.748 474.336 755.724 474.336C754.908 474.336 754.148 474.224 753.444 474C752.756 473.792 752.148 473.472 751.62 473.04C751.092 472.608 750.668 472.08 750.348 471.456C750.044 470.816 749.876 470.072 749.844 469.224H752.58C752.66 470.136 752.972 470.84 753.516 471.336C754.06 471.816 754.78 472.056 755.676 472.056C756.252 472.056 756.74 471.96 757.14 471.768C757.54 471.576 757.86 471.312 758.1 470.976C758.356 470.64 758.532 470.248 758.628 469.8C758.74 469.352 758.796 468.872 758.796 468.36C758.796 467.896 758.732 467.456 758.604 467.04C758.476 466.608 758.284 466.232 758.028 465.912C757.772 465.592 757.436 465.336 757.02 465.144C756.62 464.952 756.148 464.856 755.604 464.856C755.028 464.856 754.484 464.968 753.972 465.192C753.476 465.4 753.116 465.8 752.892 466.392H750.156L751.956 457.2ZM763.996 470.76H767.332V474H763.996V470.76ZM763.996 461.856H767.332V465.096H763.996V461.856ZM774.492 464.16C774.94 464.176 775.388 464.144 775.836 464.064C776.284 463.984 776.684 463.848 777.036 463.656C777.388 463.448 777.668 463.168 777.876 462.816C778.1 462.464 778.212 462.032 778.212 461.52C778.212 460.8 777.964 460.224 777.468 459.792C776.988 459.36 776.364 459.144 775.596 459.144C775.116 459.144 774.7 459.24 774.348 459.432C773.996 459.624 773.7 459.888 773.46 460.224C773.236 460.544 773.068 460.912 772.956 461.328C772.844 461.728 772.796 462.144 772.812 462.576H770.076C770.108 461.76 770.26 461.008 770.532 460.32C770.804 459.616 771.172 459.008 771.636 458.496C772.116 457.984 772.692 457.584 773.364 457.296C774.036 457.008 774.796 456.864 775.644 456.864C776.3 456.864 776.94 456.96 777.564 457.152C778.204 457.344 778.772 457.624 779.268 457.992C779.78 458.36 780.188 458.832 780.492 459.408C780.796 459.968 780.948 460.616 780.948 461.352C780.948 462.2 780.756 462.944 780.372 463.584C779.988 464.208 779.388 464.664 778.572 464.952V465C779.532 465.192 780.276 465.672 780.804 466.44C781.348 467.192 781.62 468.112 781.62 469.2C781.62 470 781.46 470.72 781.14 471.36C780.82 471.984 780.388 472.52 779.844 472.968C779.3 473.4 778.668 473.736 777.948 473.976C777.228 474.216 776.468 474.336 775.668 474.336C774.692 474.336 773.836 474.2 773.1 473.928C772.38 473.64 771.772 473.24 771.276 472.728C770.796 472.216 770.428 471.6 770.172 470.88C769.916 470.16 769.78 469.36 769.764 468.48H772.5C772.468 469.504 772.716 470.36 773.244 471.048C773.788 471.72 774.596 472.056 775.668 472.056C776.58 472.056 777.34 471.8 777.948 471.288C778.572 470.76 778.884 470.016 778.884 469.056C778.884 468.4 778.756 467.88 778.5 467.496C778.244 467.112 777.908 466.824 777.492 466.632C777.076 466.424 776.604 466.296 776.076 466.248C775.564 466.2 775.036 466.184 774.492 466.2V464.16ZM789.027 456.864C790.227 456.864 791.203 457.144 791.955 457.704C792.723 458.248 793.315 458.952 793.731 459.816C794.163 460.664 794.451 461.6 794.595 462.624C794.755 463.648 794.835 464.64 794.835 465.6C794.835 466.56 794.755 467.552 794.595 468.576C794.451 469.6 794.163 470.544 793.731 471.408C793.315 472.256 792.723 472.96 791.955 473.52C791.203 474.064 790.227 474.336 789.027 474.336C787.827 474.336 786.843 474.064 786.075 473.52C785.323 472.96 784.731 472.256 784.299 471.408C783.883 470.544 783.595 469.6 783.435 468.576C783.291 467.552 783.219 466.56 783.219 465.6C783.219 464.64 783.291 463.648 783.435 462.624C783.595 461.6 783.883 460.664 784.299 459.816C784.731 458.952 785.323 458.248 786.075 457.704C786.843 457.144 787.827 456.864 789.027 456.864ZM789.027 472.056C789.619 472.056 790.115 471.888 790.515 471.552C790.915 471.2 791.227 470.736 791.451 470.16C791.691 469.568 791.859 468.88 791.955 468.096C792.051 467.312 792.099 466.48 792.099 465.6C792.099 464.72 792.051 463.896 791.955 463.128C791.859 462.344 791.691 461.656 791.451 461.064C791.227 460.472 790.915 460.008 790.515 459.672C790.115 459.32 789.619 459.144 789.027 459.144C788.419 459.144 787.915 459.32 787.515 459.672C787.131 460.008 786.819 460.472 786.579 461.064C786.355 461.656 786.195 462.344 786.099 463.128C786.003 463.896 785.955 464.72 785.955 465.6C785.955 466.48 786.003 467.312 786.099 468.096C786.195 468.88 786.355 469.568 786.579 470.16C786.819 470.736 787.131 471.2 787.515 471.552C787.915 471.888 788.419 472.056 789.027 472.056ZM803.883 461.592H806.475V463.272H806.523C806.907 462.552 807.443 462.04 808.131 461.736C808.819 461.416 809.563 461.256 810.363 461.256C811.339 461.256 812.187 461.432 812.907 461.784C813.643 462.12 814.251 462.592 814.731 463.2C815.211 463.792 815.571 464.488 815.811 465.288C816.051 466.088 816.171 466.944 816.171 467.856C816.171 468.688 816.059 469.496 815.835 470.28C815.627 471.064 815.299 471.76 814.851 472.368C814.419 472.96 813.867 473.44 813.195 473.808C812.523 474.16 811.731 474.336 810.819 474.336C810.419 474.336 810.019 474.296 809.619 474.216C809.219 474.152 808.835 474.04 808.467 473.88C808.099 473.72 807.755 473.52 807.435 473.28C807.131 473.024 806.875 472.728 806.667 472.392H806.619V478.584H803.883V461.592ZM813.435 467.808C813.435 467.248 813.363 466.704 813.219 466.176C813.075 465.648 812.859 465.184 812.571 464.784C812.283 464.368 811.923 464.04 811.491 463.8C811.059 463.544 810.563 463.416 810.003 463.416C808.851 463.416 807.979 463.816 807.387 464.616C806.811 465.416 806.523 466.48 806.523 467.808C806.523 468.432 806.595 469.016 806.739 469.56C806.899 470.088 807.131 470.544 807.435 470.928C807.739 471.312 808.099 471.616 808.515 471.84C808.947 472.064 809.443 472.176 810.003 472.176C810.627 472.176 811.155 472.048 811.587 471.792C812.019 471.536 812.371 471.208 812.643 470.808C812.931 470.392 813.131 469.928 813.243 469.416C813.371 468.888 813.435 468.352 813.435 467.808ZM818.483 461.592H821.075V463.32H821.147C821.355 463.016 821.579 462.736 821.819 462.48C822.059 462.224 822.323 462.008 822.611 461.832C822.915 461.656 823.259 461.52 823.643 461.424C824.027 461.312 824.467 461.256 824.963 461.256C825.715 461.256 826.411 461.424 827.051 461.76C827.707 462.096 828.171 462.616 828.443 463.32C828.907 462.68 829.443 462.176 830.051 461.808C830.659 461.44 831.419 461.256 832.331 461.256C833.643 461.256 834.659 461.576 835.379 462.216C836.115 462.856 836.483 463.928 836.483 465.432V474H833.747V466.752C833.747 466.256 833.731 465.808 833.699 465.408C833.667 464.992 833.571 464.64 833.411 464.352C833.267 464.048 833.043 463.816 832.739 463.656C832.435 463.496 832.019 463.416 831.491 463.416C830.563 463.416 829.891 463.704 829.475 464.28C829.059 464.856 828.851 465.672 828.851 466.728V474H826.115V466.032C826.115 465.168 825.955 464.52 825.635 464.088C825.331 463.64 824.763 463.416 823.931 463.416C823.579 463.416 823.235 463.488 822.899 463.632C822.579 463.776 822.291 463.984 822.035 464.256C821.795 464.528 821.595 464.864 821.435 465.264C821.291 465.664 821.219 466.12 821.219 466.632V474H818.483V461.592Z" fill="black"/>
<path d="M632.518 291.984C633.094 291.984 633.654 291.936 634.198 291.84C634.742 291.744 635.23 291.584 635.662 291.36C636.11 291.136 636.486 290.848 636.79 290.496C637.11 290.144 637.318 289.712 637.414 289.2H639.646V306H636.646V294.144H632.518V291.984ZM645.854 291.984C646.43 291.984 646.99 291.936 647.534 291.84C648.078 291.744 648.566 291.584 648.998 291.36C649.446 291.136 649.822 290.848 650.126 290.496C650.446 290.144 650.654 289.712 650.75 289.2H652.982V306H649.982V294.144H645.854V291.984ZM659.574 302.76H662.91V306H659.574V302.76ZM659.574 293.856H662.91V297.096H659.574V293.856ZM670.07 296.16C670.518 296.176 670.966 296.144 671.414 296.064C671.862 295.984 672.262 295.848 672.614 295.656C672.966 295.448 673.246 295.168 673.454 294.816C673.678 294.464 673.79 294.032 673.79 293.52C673.79 292.8 673.542 292.224 673.046 291.792C672.566 291.36 671.942 291.144 671.174 291.144C670.694 291.144 670.278 291.24 669.926 291.432C669.574 291.624 669.278 291.888 669.038 292.224C668.814 292.544 668.646 292.912 668.534 293.328C668.422 293.728 668.374 294.144 668.39 294.576H665.654C665.686 293.76 665.838 293.008 666.11 292.32C666.382 291.616 666.75 291.008 667.214 290.496C667.694 289.984 668.27 289.584 668.942 289.296C669.614 289.008 670.374 288.864 671.222 288.864C671.878 288.864 672.518 288.96 673.142 289.152C673.782 289.344 674.35 289.624 674.846 289.992C675.358 290.36 675.766 290.832 676.07 291.408C676.374 291.968 676.526 292.616 676.526 293.352C676.526 294.2 676.334 294.944 675.95 295.584C675.566 296.208 674.966 296.664 674.15 296.952V297C675.11 297.192 675.854 297.672 676.382 298.44C676.926 299.192 677.198 300.112 677.198 301.2C677.198 302 677.038 302.72 676.718 303.36C676.398 303.984 675.966 304.52 675.422 304.968C674.878 305.4 674.246 305.736 673.526 305.976C672.806 306.216 672.046 306.336 671.246 306.336C670.27 306.336 669.414 306.2 668.678 305.928C667.958 305.64 667.35 305.24 666.854 304.728C666.374 304.216 666.006 303.6 665.75 302.88C665.494 302.16 665.358 301.36 665.342 300.48H668.078C668.046 301.504 668.294 302.36 668.822 303.048C669.366 303.72 670.174 304.056 671.246 304.056C672.158 304.056 672.918 303.8 673.526 303.288C674.15 302.76 674.462 302.016 674.462 301.056C674.462 300.4 674.334 299.88 674.078 299.496C673.822 299.112 673.486 298.824 673.07 298.632C672.654 298.424 672.182 298.296 671.654 298.248C671.142 298.2 670.614 298.184 670.07 298.2V296.16ZM684.606 288.864C685.806 288.864 686.782 289.144 687.534 289.704C688.302 290.248 688.894 290.952 689.31 291.816C689.742 292.664 690.03 293.6 690.174 294.624C690.334 295.648 690.414 296.64 690.414 297.6C690.414 298.56 690.334 299.552 690.174 300.576C690.03 301.6 689.742 302.544 689.31 303.408C688.894 304.256 688.302 304.96 687.534 305.52C686.782 306.064 685.806 306.336 684.606 306.336C683.406 306.336 682.422 306.064 681.654 305.52C680.902 304.96 680.31 304.256 679.878 303.408C679.462 302.544 679.174 301.6 679.014 300.576C678.87 299.552 678.798 298.56 678.798 297.6C678.798 296.64 678.87 295.648 679.014 294.624C679.174 293.6 679.462 292.664 679.878 291.816C680.31 290.952 680.902 290.248 681.654 289.704C682.422 289.144 683.406 288.864 684.606 288.864ZM684.606 304.056C685.198 304.056 685.694 303.888 686.094 303.552C686.494 303.2 686.806 302.736 687.03 302.16C687.27 301.568 687.438 300.88 687.534 300.096C687.63 299.312 687.678 298.48 687.678 297.6C687.678 296.72 687.63 295.896 687.534 295.128C687.438 294.344 687.27 293.656 687.03 293.064C686.806 292.472 686.494 292.008 686.094 291.672C685.694 291.32 685.198 291.144 684.606 291.144C683.998 291.144 683.494 291.32 683.094 291.672C682.71 292.008 682.398 292.472 682.158 293.064C681.934 293.656 681.774 294.344 681.678 295.128C681.582 295.896 681.534 296.72 681.534 297.6C681.534 298.48 681.582 299.312 681.678 300.096C681.774 300.88 681.934 301.568 682.158 302.16C682.398 302.736 682.71 303.2 683.094 303.552C683.494 303.888 683.998 304.056 684.606 304.056ZM703.102 303.24C703.102 303.576 703.142 303.816 703.222 303.96C703.318 304.104 703.494 304.176 703.75 304.176C703.83 304.176 703.926 304.176 704.038 304.176C704.15 304.176 704.278 304.16 704.422 304.128V306.024C704.326 306.056 704.198 306.088 704.038 306.12C703.894 306.168 703.742 306.208 703.582 306.24C703.422 306.272 703.262 306.296 703.102 306.312C702.942 306.328 702.806 306.336 702.694 306.336C702.134 306.336 701.67 306.224 701.302 306C700.934 305.776 700.694 305.384 700.582 304.824C700.038 305.352 699.366 305.736 698.566 305.976C697.782 306.216 697.022 306.336 696.286 306.336C695.726 306.336 695.19 306.256 694.678 306.096C694.166 305.952 693.71 305.736 693.31 305.448C692.926 305.144 692.614 304.768 692.374 304.32C692.15 303.856 692.038 303.32 692.038 302.712C692.038 301.944 692.174 301.32 692.446 300.84C692.734 300.36 693.102 299.984 693.55 299.712C694.014 299.44 694.526 299.248 695.086 299.136C695.662 299.008 696.238 298.912 696.814 298.848C697.31 298.752 697.782 298.688 698.23 298.656C698.678 298.608 699.07 298.536 699.406 298.44C699.758 298.344 700.03 298.2 700.222 298.008C700.43 297.8 700.534 297.496 700.534 297.096C700.534 296.744 700.446 296.456 700.27 296.232C700.11 296.008 699.902 295.84 699.646 295.728C699.406 295.6 699.134 295.52 698.83 295.488C698.526 295.44 698.238 295.416 697.966 295.416C697.198 295.416 696.566 295.576 696.07 295.896C695.574 296.216 695.294 296.712 695.23 297.384H692.494C692.542 296.584 692.734 295.92 693.07 295.392C693.406 294.864 693.83 294.44 694.342 294.12C694.87 293.8 695.462 293.576 696.118 293.448C696.774 293.32 697.446 293.256 698.134 293.256C698.742 293.256 699.342 293.32 699.934 293.448C700.526 293.576 701.054 293.784 701.518 294.072C701.998 294.36 702.382 294.736 702.67 295.2C702.958 295.648 703.102 296.2 703.102 296.856V303.24ZM700.366 299.784C699.95 300.056 699.438 300.224 698.83 300.288C698.222 300.336 697.614 300.416 697.006 300.528C696.718 300.576 696.438 300.648 696.166 300.744C695.894 300.824 695.654 300.944 695.446 301.104C695.238 301.248 695.07 301.448 694.942 301.704C694.83 301.944 694.774 302.24 694.774 302.592C694.774 302.896 694.862 303.152 695.038 303.36C695.214 303.568 695.422 303.736 695.662 303.864C695.918 303.976 696.19 304.056 696.478 304.104C696.782 304.152 697.054 304.176 697.294 304.176C697.598 304.176 697.926 304.136 698.278 304.056C698.63 303.976 698.958 303.84 699.262 303.648C699.582 303.456 699.846 303.216 700.054 302.928C700.262 302.624 700.366 302.256 700.366 301.824V299.784ZM706.045 293.592H708.637V295.32H708.709C708.917 295.016 709.141 294.736 709.381 294.48C709.621 294.224 709.885 294.008 710.173 293.832C710.477 293.656 710.821 293.52 711.205 293.424C711.589 293.312 712.029 293.256 712.525 293.256C713.277 293.256 713.973 293.424 714.613 293.76C715.269 294.096 715.733 294.616 716.005 295.32C716.469 294.68 717.005 294.176 717.613 293.808C718.221 293.44 718.981 293.256 719.893 293.256C721.205 293.256 722.221 293.576 722.941 294.216C723.677 294.856 724.045 295.928 724.045 297.432V306H721.309V298.752C721.309 298.256 721.293 297.808 721.261 297.408C721.229 296.992 721.133 296.64 720.973 296.352C720.829 296.048 720.605 295.816 720.301 295.656C719.997 295.496 719.581 295.416 719.053 295.416C718.125 295.416 717.453 295.704 717.037 296.28C716.621 296.856 716.413 297.672 716.413 298.728V306H713.677V298.032C713.677 297.168 713.517 296.52 713.197 296.088C712.893 295.64 712.325 295.416 711.493 295.416C711.141 295.416 710.797 295.488 710.461 295.632C710.141 295.776 709.853 295.984 709.597 296.256C709.357 296.528 709.157 296.864 708.997 297.264C708.853 297.664 708.781 298.12 708.781 298.632V306H706.045V293.592ZM733.344 298.176H740.328V300.768H733.344V298.176ZM749.448 291.984C750.024 291.984 750.584 291.936 751.128 291.84C751.672 291.744 752.16 291.584 752.592 291.36C753.04 291.136 753.416 290.848 753.72 290.496C754.04 290.144 754.248 289.712 754.344 289.2H756.576V306H753.576V294.144H749.448V291.984ZM773.92 306H762.448C762.464 304.608 762.8 303.392 763.456 302.352C764.112 301.312 765.008 300.408 766.144 299.64C766.688 299.24 767.256 298.856 767.848 298.488C768.44 298.104 768.984 297.696 769.48 297.264C769.976 296.832 770.384 296.368 770.704 295.872C771.024 295.36 771.192 294.776 771.208 294.12C771.208 293.816 771.168 293.496 771.088 293.16C771.024 292.808 770.888 292.488 770.68 292.2C770.472 291.896 770.184 291.648 769.816 291.456C769.448 291.248 768.968 291.144 768.376 291.144C767.832 291.144 767.376 291.256 767.008 291.48C766.656 291.688 766.368 291.984 766.144 292.368C765.936 292.736 765.776 293.176 765.664 293.688C765.568 294.2 765.512 294.752 765.496 295.344H762.76C762.76 294.416 762.88 293.56 763.12 292.776C763.376 291.976 763.752 291.288 764.248 290.712C764.744 290.136 765.344 289.688 766.048 289.368C766.768 289.032 767.6 288.864 768.544 288.864C769.568 288.864 770.424 289.032 771.112 289.368C771.8 289.704 772.352 290.128 772.768 290.64C773.2 291.152 773.504 291.712 773.68 292.32C773.856 292.912 773.944 293.48 773.944 294.024C773.944 294.696 773.84 295.304 773.632 295.848C773.424 296.392 773.144 296.896 772.792 297.36C772.44 297.808 772.04 298.224 771.592 298.608C771.144 298.992 770.68 299.352 770.2 299.688C769.72 300.024 769.24 300.344 768.76 300.648C768.28 300.952 767.832 301.256 767.416 301.56C767.016 301.864 766.664 302.184 766.36 302.52C766.056 302.84 765.848 303.184 765.736 303.552H773.92V306ZM776.504 302.76H779.84V306H776.504V302.76ZM776.504 293.856H779.84V297.096H776.504V293.856ZM786.999 296.16C787.447 296.176 787.895 296.144 788.343 296.064C788.791 295.984 789.191 295.848 789.543 295.656C789.895 295.448 790.175 295.168 790.383 294.816C790.607 294.464 790.719 294.032 790.719 293.52C790.719 292.8 790.471 292.224 789.975 291.792C789.495 291.36 788.871 291.144 788.103 291.144C787.623 291.144 787.207 291.24 786.855 291.432C786.503 291.624 786.207 291.888 785.967 292.224C785.743 292.544 785.575 292.912 785.463 293.328C785.351 293.728 785.303 294.144 785.319 294.576H782.583C782.615 293.76 782.767 293.008 783.039 292.32C783.311 291.616 783.679 291.008 784.143 290.496C784.623 289.984 785.199 289.584 785.871 289.296C786.543 289.008 787.303 288.864 788.151 288.864C788.807 288.864 789.447 288.96 790.071 289.152C790.711 289.344 791.279 289.624 791.775 289.992C792.287 290.36 792.695 290.832 792.999 291.408C793.303 291.968 793.455 292.616 793.455 293.352C793.455 294.2 793.263 294.944 792.879 295.584C792.495 296.208 791.895 296.664 791.079 296.952V297C792.039 297.192 792.783 297.672 793.311 298.44C793.855 299.192 794.127 300.112 794.127 301.2C794.127 302 793.967 302.72 793.647 303.36C793.327 303.984 792.895 304.52 792.351 304.968C791.807 305.4 791.175 305.736 790.455 305.976C789.735 306.216 788.975 306.336 788.175 306.336C787.199 306.336 786.343 306.2 785.607 305.928C784.887 305.64 784.279 305.24 783.783 304.728C783.303 304.216 782.935 303.6 782.679 302.88C782.423 302.16 782.287 301.36 782.271 300.48H785.007C784.975 301.504 785.223 302.36 785.751 303.048C786.295 303.72 787.103 304.056 788.175 304.056C789.087 304.056 789.847 303.8 790.455 303.288C791.079 302.76 791.391 302.016 791.391 301.056C791.391 300.4 791.263 299.88 791.007 299.496C790.751 299.112 790.415 298.824 789.999 298.632C789.583 298.424 789.111 298.296 788.583 298.248C788.071 298.2 787.543 298.184 786.999 298.2V296.16ZM801.535 288.864C802.735 288.864 803.711 289.144 804.463 289.704C805.231 290.248 805.823 290.952 806.239 291.816C806.671 292.664 806.959 293.6 807.103 294.624C807.263 295.648 807.343 296.64 807.343 297.6C807.343 298.56 807.263 299.552 807.103 300.576C806.959 301.6 806.671 302.544 806.239 303.408C805.823 304.256 805.231 304.96 804.463 305.52C803.711 306.064 802.735 306.336 801.535 306.336C800.335 306.336 799.351 306.064 798.583 305.52C797.831 304.96 797.239 304.256 796.807 303.408C796.391 302.544 796.103 301.6 795.943 300.576C795.799 299.552 795.727 298.56 795.727 297.6C795.727 296.64 795.799 295.648 795.943 294.624C796.103 293.6 796.391 292.664 796.807 291.816C797.239 290.952 797.831 290.248 798.583 289.704C799.351 289.144 800.335 288.864 801.535 288.864ZM801.535 304.056C802.127 304.056 802.623 303.888 803.023 303.552C803.423 303.2 803.735 302.736 803.959 302.16C804.199 301.568 804.367 300.88 804.463 300.096C804.559 299.312 804.607 298.48 804.607 297.6C804.607 296.72 804.559 295.896 804.463 295.128C804.367 294.344 804.199 293.656 803.959 293.064C803.735 292.472 803.423 292.008 803.023 291.672C802.623 291.32 802.127 291.144 801.535 291.144C800.927 291.144 800.423 291.32 800.023 291.672C799.639 292.008 799.327 292.472 799.087 293.064C798.863 293.656 798.703 294.344 798.607 295.128C798.511 295.896 798.463 296.72 798.463 297.6C798.463 298.48 798.511 299.312 798.607 300.096C798.703 300.88 798.863 301.568 799.087 302.16C799.327 302.736 799.639 303.2 800.023 303.552C800.423 303.888 800.927 304.056 801.535 304.056ZM809.711 293.592H812.303V295.272H812.351C812.735 294.552 813.271 294.04 813.959 293.736C814.647 293.416 815.391 293.256 816.191 293.256C817.167 293.256 818.015 293.432 818.735 293.784C819.471 294.12 820.079 294.592 820.559 295.2C821.039 295.792 821.399 296.488 821.639 297.288C821.879 298.088 821.999 298.944 821.999 299.856C821.999 300.688 821.887 301.496 821.663 302.28C821.455 303.064 821.127 303.76 820.679 304.368C820.247 304.96 819.695 305.44 819.023 305.808C818.351 306.16 817.559 306.336 816.647 306.336C816.247 306.336 815.847 306.296 815.447 306.216C815.047 306.152 814.663 306.04 814.295 305.88C813.927 305.72 813.583 305.52 813.263 305.28C812.959 305.024 812.703 304.728 812.495 304.392H812.447V310.584H809.711V293.592ZM819.263 299.808C819.263 299.248 819.191 298.704 819.047 298.176C818.903 297.648 818.687 297.184 818.399 296.784C818.111 296.368 817.751 296.04 817.319 295.8C816.887 295.544 816.391 295.416 815.831 295.416C814.679 295.416 813.807 295.816 813.215 296.616C812.639 297.416 812.351 298.48 812.351 299.808C812.351 300.432 812.423 301.016 812.567 301.56C812.727 302.088 812.959 302.544 813.263 302.928C813.567 303.312 813.927 303.616 814.343 303.84C814.775 304.064 815.271 304.176 815.831 304.176C816.455 304.176 816.983 304.048 817.415 303.792C817.847 303.536 818.199 303.208 818.471 302.808C818.759 302.392 818.959 301.928 819.071 301.416C819.199 300.888 819.263 300.352 819.263 299.808ZM824.311 293.592H826.903V295.32H826.975C827.183 295.016 827.407 294.736 827.647 294.48C827.887 294.224 828.151 294.008 828.439 293.832C828.743 293.656 829.087 293.52 829.471 293.424C829.855 293.312 830.295 293.256 830.791 293.256C831.543 293.256 832.239 293.424 832.879 293.76C833.535 294.096 833.999 294.616 834.271 295.32C834.735 294.68 835.271 294.176 835.879 293.808C836.487 293.44 837.247 293.256 838.159 293.256C839.471 293.256 840.487 293.576 841.207 294.216C841.943 294.856 842.311 295.928 842.311 297.432V306H839.575V298.752C839.575 298.256 839.559 297.808 839.527 297.408C839.495 296.992 839.399 296.64 839.239 296.352C839.095 296.048 838.871 295.816 838.567 295.656C838.263 295.496 837.847 295.416 837.319 295.416C836.391 295.416 835.719 295.704 835.303 296.28C834.887 296.856 834.679 297.672 834.679 298.728V306H831.943V298.032C831.943 297.168 831.783 296.52 831.463 296.088C831.159 295.64 830.591 295.416 829.759 295.416C829.407 295.416 829.063 295.488 828.727 295.632C828.407 295.776 828.119 295.984 827.863 296.256C827.623 296.528 827.423 296.864 827.263 297.264C827.119 297.664 827.047 298.12 827.047 298.632V306H824.311V293.592Z" fill="#A183F6"/>
</g>
<defs>
<filter id="filter0_d" x="300" y="-12" width="874" height="923" filterUnits="userSpaceOnUse" color-interpolation-filters="sRGB">
<feFlood flood-opacity="0" result="BackgroundImageFix"/>
<feColorMatrix in="SourceAlpha" type="matrix" values="0 0 0 0 0 0 0 0 0 0 0 0 0 0 0 0 0 0 127 0"/>
<feOffset/>
<feGaussianBlur stdDeviation="25"/>
<feColorMatrix type="matrix" values="0 0 0 0 0.901961 0 0 0 0 0.913725 0 0 0 0 0.941176 0 0 0 1 0"/>
<feBlend mode="normal" in2="BackgroundImageFix" result="effect1_dropShadow"/>
<feBlend mode="normal" in="SourceGraphic" in2="effect1_dropShadow" result="shape"/>
</filter>
<linearGradient id="paint0_linear" x1="595" y1="720" x2="613.921" y2="826.643" gradientUnits="userSpaceOnUse">
<stop stop-color="#CE9FFC"/>
<stop offset="1" stop-color="#7367F0"/>
</linearGradient>
<clipPath id="clip0">
<rect width="1440" height="900" fill="white"/>
</clipPath>
</defs>
</svg>
